<svg  viewBox="0 0 687 49" fill="none" xmlns="http://www.w3.org/2000/svg">
    <mask id="path-1-outside-1_2_9" maskUnits="userSpaceOnUse" x="0.927994" y="0.815998" width="686" height="48" fill="black">
        <rect fill="white" x="0.927994" y="0.815998" width="686" height="48"/>
        <path d="M27.144 2.392V7.128H7.75199V22.168H23.496V26.904H7.75199V47H1.92799V2.392H27.144Z"/>
        <path d="M39.874 2.392V30.616C39.874 34.584 40.834 37.528 42.754 39.448C44.7167 41.368 47.426 42.328 50.882 42.328C54.2953 42.328 56.962 41.368 58.882 39.448C60.8447 37.528 61.826 34.584 61.826 30.616V2.392H67.65V30.552C67.65 34.264 66.9033 37.4 65.41 39.96C63.9167 42.4773 61.89 44.3547 59.33 45.592C56.8127 46.8293 53.9753 47.448 50.818 47.448C47.6607 47.448 44.802 46.8293 42.242 45.592C39.7247 44.3547 37.7193 42.4773 36.226 39.96C34.7753 37.4 34.05 34.264 34.05 30.552V2.392H39.874Z"/>
        <path d="M83.1895 42.264H98.8055V47H77.3655V2.392H83.1895V42.264Z"/>
        <path d="M110.814 42.264H126.43V47H104.99V2.392H110.814V42.264Z"/>
        <path d="M146.76 47.448C143.816 47.448 141.17 46.936 138.824 45.912C136.52 44.8453 134.706 43.3947 133.383 41.56C132.061 39.6827 131.378 37.528 131.335 35.096H137.544C137.757 37.1867 138.61 38.9573 140.104 40.408C141.639 41.816 143.858 42.52 146.76 42.52C149.533 42.52 151.709 41.8373 153.288 40.472C154.909 39.064 155.719 37.272 155.719 35.096C155.719 33.3893 155.25 32.0027 154.311 30.936C153.373 29.8693 152.2 29.0587 150.792 28.504C149.383 27.9493 147.485 27.352 145.096 26.712C142.152 25.944 139.783 25.176 137.992 24.408C136.242 23.64 134.727 22.4453 133.447 20.824C132.21 19.16 131.592 16.9413 131.592 14.168C131.592 11.736 132.21 9.58133 133.447 7.704C134.685 5.82666 136.413 4.376 138.632 3.352C140.893 2.328 143.474 1.816 146.376 1.816C150.557 1.816 153.97 2.86133 156.616 4.952C159.304 7.04266 160.818 9.816 161.16 13.272H154.76C154.546 11.5653 153.65 10.072 152.072 8.792C150.493 7.46933 148.402 6.808 145.799 6.808C143.367 6.808 141.383 7.448 139.848 8.728C138.312 9.96533 137.544 11.7147 137.544 13.976C137.544 15.5973 137.992 16.92 138.887 17.944C139.826 18.968 140.957 19.7573 142.279 20.312C143.645 20.824 145.544 21.4213 147.975 22.104C150.919 22.9147 153.287 23.7253 155.079 24.536C156.872 25.304 158.408 26.52 159.688 28.184C160.967 29.8053 161.607 32.024 161.607 34.84C161.607 37.016 161.032 39.064 159.88 40.984C158.727 42.904 157.021 44.4613 154.76 45.656C152.498 46.8507 149.832 47.448 146.76 47.448Z"/>
        <path d="M197.634 2.392V7.128H185.474V47H179.65V7.128H167.426V2.392H197.634Z"/>
        <path d="M231.171 37.08H211.715L208.131 47H201.987L218.115 2.648H224.835L240.899 47H234.755L231.171 37.08ZM229.507 32.344L221.443 9.816L213.379 32.344H229.507Z"/>
        <path d="M245.752 24.664C245.752 20.312 246.733 16.408 248.696 12.952C250.659 9.45333 253.325 6.72267 256.696 4.76C260.109 2.79733 263.885 1.816 268.024 1.816C272.888 1.816 277.133 2.98933 280.76 5.336C284.387 7.68267 287.032 11.0107 288.696 15.32H281.72C280.483 12.632 278.691 10.5627 276.344 9.112C274.04 7.66133 271.267 6.936 268.024 6.936C264.909 6.936 262.115 7.66133 259.64 9.112C257.165 10.5627 255.224 12.632 253.816 15.32C252.408 17.9653 251.704 21.08 251.704 24.664C251.704 28.2053 252.408 31.32 253.816 34.008C255.224 36.6533 257.165 38.7013 259.64 40.152C262.115 41.6027 264.909 42.328 268.024 42.328C271.267 42.328 274.04 41.624 276.344 40.216C278.691 38.7653 280.483 36.696 281.72 34.008H288.696C287.032 38.2747 284.387 41.5813 280.76 43.928C277.133 46.232 272.888 47.384 268.024 47.384C263.885 47.384 260.109 46.424 256.696 44.504C253.325 42.5413 250.659 39.832 248.696 36.376C246.733 32.92 245.752 29.016 245.752 24.664Z"/>
        <path d="M321.557 47L303.189 26.648V47H297.365V2.392H303.189V23.064L321.621 2.392H328.981L308.757 24.728L329.173 47H321.557Z"/>
        <path d="M366.628 2.392C371.493 2.392 375.695 3.30933 379.236 5.144C382.821 6.936 385.551 9.51733 387.428 12.888C389.348 16.2587 390.308 20.2267 390.308 24.792C390.308 29.3573 389.348 33.3253 387.428 36.696C385.551 40.024 382.821 42.584 379.236 44.376C375.695 46.1253 371.493 47 366.628 47H352.74V2.392H366.628ZM366.628 42.2C372.389 42.2 376.783 40.6853 379.812 37.656C382.842 34.584 384.356 30.296 384.356 24.792C384.356 19.2453 382.82 14.9147 379.748 11.8C376.719 8.68533 372.346 7.128 366.628 7.128H358.564V42.2H366.628Z"/>
        <path d="M403.814 7.128V22.04H420.07V26.84H403.814V42.2H421.99V47H397.99V2.328H421.99V7.128H403.814Z"/>
        <path d="M467.667 2.392L450.835 47H444.115L427.283 2.392H433.491L447.507 40.856L461.523 2.392H467.667Z"/>
        <path d="M479.877 7.128V22.04H496.133V26.84H479.877V42.2H498.053V47H474.053V2.328H498.053V7.128H479.877Z"/>
        <path d="M512.689 42.264H528.305V47H506.865V2.392H512.689V42.264Z"/>
        <path d="M554.714 47.448C550.576 47.448 546.8 46.488 543.386 44.568C539.973 42.6053 537.264 39.896 535.258 36.44C533.296 32.9413 532.315 29.016 532.315 24.664C532.315 20.312 533.296 16.408 535.258 12.952C537.264 9.45333 539.973 6.744 543.386 4.824C546.8 2.86133 550.576 1.88 554.714 1.88C558.896 1.88 562.693 2.86133 566.107 4.824C569.52 6.744 572.208 9.432 574.171 12.888C576.133 16.344 577.115 20.2693 577.115 24.664C577.115 29.0587 576.133 32.984 574.171 36.44C572.208 39.896 569.52 42.6053 566.107 44.568C562.693 46.488 558.896 47.448 554.714 47.448ZM554.714 42.392C557.829 42.392 560.624 41.6667 563.099 40.216C565.616 38.7653 567.579 36.696 568.987 34.008C570.437 31.32 571.162 28.2053 571.162 24.664C571.162 21.08 570.437 17.9653 568.987 15.32C567.579 12.632 565.637 10.5627 563.162 9.112C560.688 7.66133 557.872 6.936 554.714 6.936C551.557 6.936 548.741 7.66133 546.266 9.112C543.792 10.5627 541.829 12.632 540.378 15.32C538.97 17.9653 538.266 21.08 538.266 24.664C538.266 28.2053 538.97 31.32 540.378 34.008C541.829 36.696 543.792 38.7653 546.266 40.216C548.784 41.6667 551.6 42.392 554.714 42.392Z"/>
        <path d="M614.627 15.448C614.627 19.16 613.347 22.2533 610.787 24.728C608.27 27.16 604.408 28.376 599.203 28.376H590.627V47H584.803V2.392H599.203C604.238 2.392 608.056 3.608 610.659 6.04C613.304 8.472 614.627 11.608 614.627 15.448ZM599.203 23.576C602.446 23.576 604.835 22.872 606.371 21.464C607.907 20.056 608.675 18.0507 608.675 15.448C608.675 9.944 605.518 7.192 599.203 7.192H590.627V23.576H599.203Z"/>
        <path d="M627.69 7.128V22.04H643.946V26.84H627.69V42.2H645.865V47H621.865V2.328H645.865V7.128H627.69Z"/>
        <path d="M678.166 47L667.542 28.76H660.502V47H654.678V2.392H669.078C672.449 2.392 675.286 2.968 677.59 4.12C679.937 5.272 681.686 6.82933 682.838 8.792C683.99 10.7547 684.566 12.9947 684.566 15.512C684.566 18.584 683.67 21.2933 681.878 23.64C680.129 25.9867 677.483 27.544 673.942 28.312L685.142 47H678.166ZM660.502 24.088H669.078C672.235 24.088 674.603 23.32 676.182 21.784C677.761 20.2053 678.55 18.1147 678.55 15.512C678.55 12.8667 677.761 10.8187 676.182 9.368C674.646 7.91733 672.278 7.192 669.078 7.192H660.502V24.088Z"/>
    </mask>
    <path d="M27.144 2.392V7.128H7.75199V22.168H23.496V26.904H7.75199V47H1.92799V2.392H27.144Z" stroke="white" stroke-width="2" mask="url(#path-1-outside-1_2_9)"/>
    <path d="M39.874 2.392V30.616C39.874 34.584 40.834 37.528 42.754 39.448C44.7167 41.368 47.426 42.328 50.882 42.328C54.2953 42.328 56.962 41.368 58.882 39.448C60.8447 37.528 61.826 34.584 61.826 30.616V2.392H67.65V30.552C67.65 34.264 66.9033 37.4 65.41 39.96C63.9167 42.4773 61.89 44.3547 59.33 45.592C56.8127 46.8293 53.9753 47.448 50.818 47.448C47.6607 47.448 44.802 46.8293 42.242 45.592C39.7247 44.3547 37.7193 42.4773 36.226 39.96C34.7753 37.4 34.05 34.264 34.05 30.552V2.392H39.874Z" stroke="white" stroke-width="2" mask="url(#path-1-outside-1_2_9)"/>
    <path d="M83.1895 42.264H98.8055V47H77.3655V2.392H83.1895V42.264Z" stroke="white" stroke-width="2" mask="url(#path-1-outside-1_2_9)"/>
    <path d="M110.814 42.264H126.43V47H104.99V2.392H110.814V42.264Z" stroke="white" stroke-width="2" mask="url(#path-1-outside-1_2_9)"/>
    <path d="M146.76 47.448C143.816 47.448 141.17 46.936 138.824 45.912C136.52 44.8453 134.706 43.3947 133.383 41.56C132.061 39.6827 131.378 37.528 131.335 35.096H137.544C137.757 37.1867 138.61 38.9573 140.104 40.408C141.639 41.816 143.858 42.52 146.76 42.52C149.533 42.52 151.709 41.8373 153.288 40.472C154.909 39.064 155.719 37.272 155.719 35.096C155.719 33.3893 155.25 32.0027 154.311 30.936C153.373 29.8693 152.2 29.0587 150.792 28.504C149.383 27.9493 147.485 27.352 145.096 26.712C142.152 25.944 139.783 25.176 137.992 24.408C136.242 23.64 134.727 22.4453 133.447 20.824C132.21 19.16 131.592 16.9413 131.592 14.168C131.592 11.736 132.21 9.58133 133.447 7.704C134.685 5.82666 136.413 4.376 138.632 3.352C140.893 2.328 143.474 1.816 146.376 1.816C150.557 1.816 153.97 2.86133 156.616 4.952C159.304 7.04266 160.818 9.816 161.16 13.272H154.76C154.546 11.5653 153.65 10.072 152.072 8.792C150.493 7.46933 148.402 6.808 145.799 6.808C143.367 6.808 141.383 7.448 139.848 8.728C138.312 9.96533 137.544 11.7147 137.544 13.976C137.544 15.5973 137.992 16.92 138.887 17.944C139.826 18.968 140.957 19.7573 142.279 20.312C143.645 20.824 145.544 21.4213 147.975 22.104C150.919 22.9147 153.287 23.7253 155.079 24.536C156.872 25.304 158.408 26.52 159.688 28.184C160.967 29.8053 161.607 32.024 161.607 34.84C161.607 37.016 161.032 39.064 159.88 40.984C158.727 42.904 157.021 44.4613 154.76 45.656C152.498 46.8507 149.832 47.448 146.76 47.448Z" stroke="white" stroke-width="2" mask="url(#path-1-outside-1_2_9)"/>
    <path d="M197.634 2.392V7.128H185.474V47H179.65V7.128H167.426V2.392H197.634Z" stroke="white" stroke-width="2" mask="url(#path-1-outside-1_2_9)"/>
    <path d="M231.171 37.08H211.715L208.131 47H201.987L218.115 2.648H224.835L240.899 47H234.755L231.171 37.08ZM229.507 32.344L221.443 9.816L213.379 32.344H229.507Z" stroke="white" stroke-width="2" mask="url(#path-1-outside-1_2_9)"/>
    <path d="M245.752 24.664C245.752 20.312 246.733 16.408 248.696 12.952C250.659 9.45333 253.325 6.72267 256.696 4.76C260.109 2.79733 263.885 1.816 268.024 1.816C272.888 1.816 277.133 2.98933 280.76 5.336C284.387 7.68267 287.032 11.0107 288.696 15.32H281.72C280.483 12.632 278.691 10.5627 276.344 9.112C274.04 7.66133 271.267 6.936 268.024 6.936C264.909 6.936 262.115 7.66133 259.64 9.112C257.165 10.5627 255.224 12.632 253.816 15.32C252.408 17.9653 251.704 21.08 251.704 24.664C251.704 28.2053 252.408 31.32 253.816 34.008C255.224 36.6533 257.165 38.7013 259.64 40.152C262.115 41.6027 264.909 42.328 268.024 42.328C271.267 42.328 274.04 41.624 276.344 40.216C278.691 38.7653 280.483 36.696 281.72 34.008H288.696C287.032 38.2747 284.387 41.5813 280.76 43.928C277.133 46.232 272.888 47.384 268.024 47.384C263.885 47.384 260.109 46.424 256.696 44.504C253.325 42.5413 250.659 39.832 248.696 36.376C246.733 32.92 245.752 29.016 245.752 24.664Z" stroke="white" stroke-width="2" mask="url(#path-1-outside-1_2_9)"/>
    <path d="M321.557 47L303.189 26.648V47H297.365V2.392H303.189V23.064L321.621 2.392H328.981L308.757 24.728L329.173 47H321.557Z" stroke="white" stroke-width="2" mask="url(#path-1-outside-1_2_9)"/>
    <path d="M366.628 2.392C371.493 2.392 375.695 3.30933 379.236 5.144C382.821 6.936 385.551 9.51733 387.428 12.888C389.348 16.2587 390.308 20.2267 390.308 24.792C390.308 29.3573 389.348 33.3253 387.428 36.696C385.551 40.024 382.821 42.584 379.236 44.376C375.695 46.1253 371.493 47 366.628 47H352.74V2.392H366.628ZM366.628 42.2C372.389 42.2 376.783 40.6853 379.812 37.656C382.842 34.584 384.356 30.296 384.356 24.792C384.356 19.2453 382.82 14.9147 379.748 11.8C376.719 8.68533 372.346 7.128 366.628 7.128H358.564V42.2H366.628Z" stroke="white" stroke-width="2" mask="url(#path-1-outside-1_2_9)"/>
    <path d="M403.814 7.128V22.04H420.07V26.84H403.814V42.2H421.99V47H397.99V2.328H421.99V7.128H403.814Z" stroke="white" stroke-width="2" mask="url(#path-1-outside-1_2_9)"/>
    <path d="M467.667 2.392L450.835 47H444.115L427.283 2.392H433.491L447.507 40.856L461.523 2.392H467.667Z" stroke="white" stroke-width="2" mask="url(#path-1-outside-1_2_9)"/>
    <path d="M479.877 7.128V22.04H496.133V26.84H479.877V42.2H498.053V47H474.053V2.328H498.053V7.128H479.877Z" stroke="white" stroke-width="2" mask="url(#path-1-outside-1_2_9)"/>
    <path d="M512.689 42.264H528.305V47H506.865V2.392H512.689V42.264Z" stroke="white" stroke-width="2" mask="url(#path-1-outside-1_2_9)"/>
    <path d="M554.714 47.448C550.576 47.448 546.8 46.488 543.386 44.568C539.973 42.6053 537.264 39.896 535.258 36.44C533.296 32.9413 532.315 29.016 532.315 24.664C532.315 20.312 533.296 16.408 535.258 12.952C537.264 9.45333 539.973 6.744 543.386 4.824C546.8 2.86133 550.576 1.88 554.714 1.88C558.896 1.88 562.693 2.86133 566.107 4.824C569.52 6.744 572.208 9.432 574.171 12.888C576.133 16.344 577.115 20.2693 577.115 24.664C577.115 29.0587 576.133 32.984 574.171 36.44C572.208 39.896 569.52 42.6053 566.107 44.568C562.693 46.488 558.896 47.448 554.714 47.448ZM554.714 42.392C557.829 42.392 560.624 41.6667 563.099 40.216C565.616 38.7653 567.579 36.696 568.987 34.008C570.437 31.32 571.162 28.2053 571.162 24.664C571.162 21.08 570.437 17.9653 568.987 15.32C567.579 12.632 565.637 10.5627 563.162 9.112C560.688 7.66133 557.872 6.936 554.714 6.936C551.557 6.936 548.741 7.66133 546.266 9.112C543.792 10.5627 541.829 12.632 540.378 15.32C538.97 17.9653 538.266 21.08 538.266 24.664C538.266 28.2053 538.97 31.32 540.378 34.008C541.829 36.696 543.792 38.7653 546.266 40.216C548.784 41.6667 551.6 42.392 554.714 42.392Z" stroke="white" stroke-width="2" mask="url(#path-1-outside-1_2_9)"/>
    <path d="M614.627 15.448C614.627 19.16 613.347 22.2533 610.787 24.728C608.27 27.16 604.408 28.376 599.203 28.376H590.627V47H584.803V2.392H599.203C604.238 2.392 608.056 3.608 610.659 6.04C613.304 8.472 614.627 11.608 614.627 15.448ZM599.203 23.576C602.446 23.576 604.835 22.872 606.371 21.464C607.907 20.056 608.675 18.0507 608.675 15.448C608.675 9.944 605.518 7.192 599.203 7.192H590.627V23.576H599.203Z" stroke="white" stroke-width="2" mask="url(#path-1-outside-1_2_9)"/>
    <path d="M627.69 7.128V22.04H643.946V26.84H627.69V42.2H645.865V47H621.865V2.328H645.865V7.128H627.69Z" stroke="white" stroke-width="2" mask="url(#path-1-outside-1_2_9)"/>
    <path d="M678.166 47L667.542 28.76H660.502V47H654.678V2.392H669.078C672.449 2.392 675.286 2.968 677.59 4.12C679.937 5.272 681.686 6.82933 682.838 8.792C683.99 10.7547 684.566 12.9947 684.566 15.512C684.566 18.584 683.67 21.2933 681.878 23.64C680.129 25.9867 677.483 27.544 673.942 28.312L685.142 47H678.166ZM660.502 24.088H669.078C672.235 24.088 674.603 23.32 676.182 21.784C677.761 20.2053 678.55 18.1147 678.55 15.512C678.55 12.8667 677.761 10.8187 676.182 9.368C674.646 7.91733 672.278 7.192 669.078 7.192H660.502V24.088Z" stroke="white" stroke-width="2" mask="url(#path-1-outside-1_2_9)"/>
</svg>
