<svg  viewBox="0 0 780 49" fill="none" xmlns="http://www.w3.org/2000/svg">
    <mask id="path-1-outside-1_2_5" maskUnits="userSpaceOnUse" x="0.968002" y="0.432007" width="780" height="49" fill="black">
        <rect fill="white" x="0.968002" y="0.432007" width="780" height="49"/>
        <path d="M31.216 2.07201V10.84H12.912V20.312H26.608V28.824H12.912V47H1.968V2.07201H31.216Z"/>
        <path d="M47.72 2.07201V28.952C47.72 31.64 48.3813 33.7093 49.704 35.16C51.0267 36.6107 52.968 37.336 55.528 37.336C58.088 37.336 60.0507 36.6107 61.416 35.16C62.7813 33.7093 63.464 31.64 63.464 28.952V2.07201H74.408V28.888C74.408 32.8987 73.5547 36.2907 71.848 39.064C70.1413 41.8373 67.8373 43.928 64.936 45.336C62.0773 46.744 58.8773 47.448 55.336 47.448C51.7947 47.448 48.616 46.7653 45.8 45.4C43.0267 43.992 40.8293 41.9013 39.208 39.128C37.5867 36.312 36.776 32.8987 36.776 28.888V2.07201H47.72Z"/>
        <path d="M93.037 38.552H107.373V47H82.093V2.07201H93.037V38.552Z"/>
        <path d="M123.537 38.552H137.873V47H112.593V2.07201H123.537V38.552Z"/>
        <path d="M170.613 19.992V29.08H142.453V19.992H170.613Z"/>
        <path d="M196.474 47.448C193.189 47.448 190.245 46.9147 187.642 45.848C185.039 44.7813 182.949 43.2027 181.37 41.112C179.834 39.0213 179.023 36.504 178.938 33.56H190.586C190.757 35.224 191.333 36.504 192.314 37.4C193.295 38.2533 194.575 38.68 196.154 38.68C197.775 38.68 199.055 38.3173 199.994 37.592C200.933 36.824 201.402 35.7787 201.402 34.456C201.402 33.3467 201.018 32.4293 200.25 31.704C199.525 30.9787 198.607 30.3813 197.498 29.912C196.431 29.4427 194.895 28.9093 192.89 28.312C189.989 27.416 187.621 26.52 185.786 25.624C183.951 24.728 182.373 23.4053 181.05 21.656C179.727 19.9067 179.066 17.624 179.066 14.808C179.066 10.6267 180.581 7.36267 183.61 5.01601C186.639 2.62667 190.586 1.43201 195.45 1.43201C200.399 1.43201 204.389 2.62667 207.418 5.01601C210.447 7.36267 212.069 10.648 212.282 14.872H200.442C200.357 13.4213 199.823 12.2907 198.842 11.48C197.861 10.6267 196.602 10.2 195.066 10.2C193.743 10.2 192.677 10.5627 191.866 11.288C191.055 11.9707 190.65 12.9733 190.65 14.296C190.65 15.7467 191.333 16.8773 192.698 17.688C194.063 18.4987 196.197 19.3733 199.098 20.312C201.999 21.2933 204.346 22.232 206.138 23.128C207.973 24.024 209.551 25.3253 210.874 27.032C212.197 28.7387 212.858 30.936 212.858 33.624C212.858 36.184 212.197 38.5093 210.874 40.6C209.594 42.6907 207.717 44.3547 205.242 45.592C202.767 46.8293 199.845 47.448 196.474 47.448Z"/>
        <path d="M251.913 2.07201V10.84H240.009V47H229.065V10.84H217.161V2.07201H251.913Z"/>
        <path d="M285.374 39.064H268.606L265.918 47H254.461L270.718 2.07201H283.39L299.646 47H288.062L285.374 39.064ZM282.558 30.616L276.99 14.168L271.486 30.616H282.558Z"/>
        <path d="M302.737 24.472C302.737 20.0347 303.697 16.088 305.617 12.632C307.537 9.13334 310.204 6.42401 313.617 4.50401C317.073 2.54134 320.977 1.56001 325.329 1.56001C330.662 1.56001 335.228 2.968 339.025 5.784C342.822 8.60001 345.361 12.44 346.641 17.304H334.609C333.713 15.4267 332.433 13.9973 330.769 13.016C329.148 12.0347 327.292 11.544 325.201 11.544C321.83 11.544 319.1 12.7173 317.009 15.064C314.918 17.4107 313.873 20.5467 313.873 24.472C313.873 28.3973 314.918 31.5333 317.009 33.88C319.1 36.2267 321.83 37.4 325.201 37.4C327.292 37.4 329.148 36.9093 330.769 35.928C332.433 34.9467 333.713 33.5173 334.609 31.64H346.641C345.361 36.504 342.822 40.344 339.025 43.16C335.228 45.9333 330.662 47.32 325.329 47.32C320.977 47.32 317.073 46.36 313.617 44.44C310.204 42.4773 307.537 39.768 305.617 36.312C303.697 32.856 302.737 28.9093 302.737 24.472Z"/>
        <path d="M379.391 47L364.287 27.16V47H353.343V2.07201H364.287V21.784L379.263 2.07201H392.127L374.719 24.088L392.767 47H379.391Z"/>
        <path d="M441.925 2.07201C446.661 2.07201 450.8 3.01067 454.341 4.888C457.882 6.76534 460.613 9.41067 462.533 12.824C464.496 16.1947 465.477 20.0987 465.477 24.536C465.477 28.9307 464.496 32.8347 462.533 36.248C460.613 39.6613 457.861 42.3067 454.277 44.184C450.736 46.0613 446.618 47 441.925 47H425.093V2.07201H441.925ZM441.221 37.528C445.36 37.528 448.581 36.3973 450.885 34.136C453.189 31.8747 454.341 28.6747 454.341 24.536C454.341 20.3973 453.189 17.176 450.885 14.872C448.581 12.568 445.36 11.416 441.221 11.416H436.037V37.528H441.221Z"/>
        <path d="M482.537 10.84V19.928H497.193V28.376H482.537V38.232H499.113V47H471.593V2.07201H499.113V10.84H482.537Z"/>
        <path d="M548.394 2.07201L532.458 47H518.762L502.826 2.07201H514.474L525.61 35.992L536.81 2.07201H548.394Z"/>
        <path d="M563.912 10.84V19.928H578.568V28.376H563.912V38.232H580.488V47H552.968V2.07201H580.488V10.84H563.912Z"/>
        <path d="M598.537 38.552H612.873V47H587.593V2.07201H598.537V38.552Z"/>
        <path d="M639.341 47.448C635.117 47.448 631.234 46.4667 627.693 44.504C624.194 42.5413 621.4 39.8107 619.309 36.312C617.261 32.7707 616.237 28.8027 616.237 24.408C616.237 20.0133 617.261 16.0667 619.309 12.568C621.4 9.06934 624.194 6.33867 627.693 4.37601C631.234 2.41334 635.117 1.43201 639.341 1.43201C643.565 1.43201 647.426 2.41334 650.925 4.37601C654.466 6.33867 657.24 9.06934 659.245 12.568C661.293 16.0667 662.317 20.0133 662.317 24.408C662.317 28.8027 661.293 32.7707 659.245 36.312C657.197 39.8107 654.424 42.5413 650.925 44.504C647.426 46.4667 643.565 47.448 639.341 47.448ZM639.341 37.464C642.925 37.464 645.784 36.2693 647.917 33.88C650.093 31.4907 651.181 28.3333 651.181 24.408C651.181 20.44 650.093 17.2827 647.917 14.936C645.784 12.5467 642.925 11.352 639.341 11.352C635.714 11.352 632.813 12.5253 630.637 14.872C628.504 17.2187 627.437 20.3973 627.437 24.408C627.437 28.376 628.504 31.5547 630.637 33.944C632.813 36.2907 635.714 37.464 639.341 37.464Z"/>
        <path d="M702.645 16.536C702.645 19.1387 702.048 21.528 700.854 23.704C699.659 25.8373 697.824 27.5653 695.349 28.888C692.875 30.2107 689.803 30.872 686.133 30.872H679.349V47H668.406V2.07201H686.133C689.717 2.07201 692.747 2.69067 695.221 3.92801C697.696 5.16534 699.552 6.872 700.789 9.048C702.027 11.224 702.645 13.72 702.645 16.536ZM685.301 22.168C687.392 22.168 688.949 21.6773 689.973 20.696C690.997 19.7147 691.51 18.328 691.51 16.536C691.51 14.744 690.997 13.3573 689.973 12.376C688.949 11.3947 687.392 10.904 685.301 10.904H679.349V22.168H685.301Z"/>
        <path d="M719.287 10.84V19.928H733.943V28.376H719.287V38.232H735.863V47H708.343V2.07201H735.863V10.84H719.287Z"/>
        <path d="M765.88 47L756.536 30.04H753.912V47H742.968V2.07201H761.336C764.877 2.07201 767.885 2.69067 770.36 3.92801C772.877 5.16534 774.755 6.872 775.992 9.048C777.229 11.1813 777.848 13.5707 777.848 16.216C777.848 19.2027 776.995 21.8693 775.288 24.216C773.624 26.5627 771.149 28.2267 767.864 29.208L778.232 47H765.88ZM753.912 22.296H760.696C762.701 22.296 764.195 21.8053 765.176 20.824C766.2 19.8427 766.712 18.456 766.712 16.664C766.712 14.9573 766.2 13.6133 765.176 12.632C764.195 11.6507 762.701 11.16 760.696 11.16H753.912V22.296Z"/>
    </mask>
    <path d="M31.216 2.07201V10.84H12.912V20.312H26.608V28.824H12.912V47H1.968V2.07201H31.216Z" stroke="white" stroke-width="2" mask="url(#path-1-outside-1_2_5)"/>
    <path d="M47.72 2.07201V28.952C47.72 31.64 48.3813 33.7093 49.704 35.16C51.0267 36.6107 52.968 37.336 55.528 37.336C58.088 37.336 60.0507 36.6107 61.416 35.16C62.7813 33.7093 63.464 31.64 63.464 28.952V2.07201H74.408V28.888C74.408 32.8987 73.5547 36.2907 71.848 39.064C70.1413 41.8373 67.8373 43.928 64.936 45.336C62.0773 46.744 58.8773 47.448 55.336 47.448C51.7947 47.448 48.616 46.7653 45.8 45.4C43.0267 43.992 40.8293 41.9013 39.208 39.128C37.5867 36.312 36.776 32.8987 36.776 28.888V2.07201H47.72Z" stroke="white" stroke-width="2" mask="url(#path-1-outside-1_2_5)"/>
    <path d="M93.037 38.552H107.373V47H82.093V2.07201H93.037V38.552Z" stroke="white" stroke-width="2" mask="url(#path-1-outside-1_2_5)"/>
    <path d="M123.537 38.552H137.873V47H112.593V2.07201H123.537V38.552Z" stroke="white" stroke-width="2" mask="url(#path-1-outside-1_2_5)"/>
    <path d="M170.613 19.992V29.08H142.453V19.992H170.613Z" stroke="white" stroke-width="2" mask="url(#path-1-outside-1_2_5)"/>
    <path d="M196.474 47.448C193.189 47.448 190.245 46.9147 187.642 45.848C185.039 44.7813 182.949 43.2027 181.37 41.112C179.834 39.0213 179.023 36.504 178.938 33.56H190.586C190.757 35.224 191.333 36.504 192.314 37.4C193.295 38.2533 194.575 38.68 196.154 38.68C197.775 38.68 199.055 38.3173 199.994 37.592C200.933 36.824 201.402 35.7787 201.402 34.456C201.402 33.3467 201.018 32.4293 200.25 31.704C199.525 30.9787 198.607 30.3813 197.498 29.912C196.431 29.4427 194.895 28.9093 192.89 28.312C189.989 27.416 187.621 26.52 185.786 25.624C183.951 24.728 182.373 23.4053 181.05 21.656C179.727 19.9067 179.066 17.624 179.066 14.808C179.066 10.6267 180.581 7.36267 183.61 5.01601C186.639 2.62667 190.586 1.43201 195.45 1.43201C200.399 1.43201 204.389 2.62667 207.418 5.01601C210.447 7.36267 212.069 10.648 212.282 14.872H200.442C200.357 13.4213 199.823 12.2907 198.842 11.48C197.861 10.6267 196.602 10.2 195.066 10.2C193.743 10.2 192.677 10.5627 191.866 11.288C191.055 11.9707 190.65 12.9733 190.65 14.296C190.65 15.7467 191.333 16.8773 192.698 17.688C194.063 18.4987 196.197 19.3733 199.098 20.312C201.999 21.2933 204.346 22.232 206.138 23.128C207.973 24.024 209.551 25.3253 210.874 27.032C212.197 28.7387 212.858 30.936 212.858 33.624C212.858 36.184 212.197 38.5093 210.874 40.6C209.594 42.6907 207.717 44.3547 205.242 45.592C202.767 46.8293 199.845 47.448 196.474 47.448Z" stroke="white" stroke-width="2" mask="url(#path-1-outside-1_2_5)"/>
    <path d="M251.913 2.07201V10.84H240.009V47H229.065V10.84H217.161V2.07201H251.913Z" stroke="white" stroke-width="2" mask="url(#path-1-outside-1_2_5)"/>
    <path d="M285.374 39.064H268.606L265.918 47H254.461L270.718 2.07201H283.39L299.646 47H288.062L285.374 39.064ZM282.558 30.616L276.99 14.168L271.486 30.616H282.558Z" stroke="white" stroke-width="2" mask="url(#path-1-outside-1_2_5)"/>
    <path d="M302.737 24.472C302.737 20.0347 303.697 16.088 305.617 12.632C307.537 9.13334 310.204 6.42401 313.617 4.50401C317.073 2.54134 320.977 1.56001 325.329 1.56001C330.662 1.56001 335.228 2.968 339.025 5.784C342.822 8.60001 345.361 12.44 346.641 17.304H334.609C333.713 15.4267 332.433 13.9973 330.769 13.016C329.148 12.0347 327.292 11.544 325.201 11.544C321.83 11.544 319.1 12.7173 317.009 15.064C314.918 17.4107 313.873 20.5467 313.873 24.472C313.873 28.3973 314.918 31.5333 317.009 33.88C319.1 36.2267 321.83 37.4 325.201 37.4C327.292 37.4 329.148 36.9093 330.769 35.928C332.433 34.9467 333.713 33.5173 334.609 31.64H346.641C345.361 36.504 342.822 40.344 339.025 43.16C335.228 45.9333 330.662 47.32 325.329 47.32C320.977 47.32 317.073 46.36 313.617 44.44C310.204 42.4773 307.537 39.768 305.617 36.312C303.697 32.856 302.737 28.9093 302.737 24.472Z" stroke="white" stroke-width="2" mask="url(#path-1-outside-1_2_5)"/>
    <path d="M379.391 47L364.287 27.16V47H353.343V2.07201H364.287V21.784L379.263 2.07201H392.127L374.719 24.088L392.767 47H379.391Z" stroke="white" stroke-width="2" mask="url(#path-1-outside-1_2_5)"/>
    <path d="M441.925 2.07201C446.661 2.07201 450.8 3.01067 454.341 4.888C457.882 6.76534 460.613 9.41067 462.533 12.824C464.496 16.1947 465.477 20.0987 465.477 24.536C465.477 28.9307 464.496 32.8347 462.533 36.248C460.613 39.6613 457.861 42.3067 454.277 44.184C450.736 46.0613 446.618 47 441.925 47H425.093V2.07201H441.925ZM441.221 37.528C445.36 37.528 448.581 36.3973 450.885 34.136C453.189 31.8747 454.341 28.6747 454.341 24.536C454.341 20.3973 453.189 17.176 450.885 14.872C448.581 12.568 445.36 11.416 441.221 11.416H436.037V37.528H441.221Z" stroke="white" stroke-width="2" mask="url(#path-1-outside-1_2_5)"/>
    <path d="M482.537 10.84V19.928H497.193V28.376H482.537V38.232H499.113V47H471.593V2.07201H499.113V10.84H482.537Z" stroke="white" stroke-width="2" mask="url(#path-1-outside-1_2_5)"/>
    <path d="M548.394 2.07201L532.458 47H518.762L502.826 2.07201H514.474L525.61 35.992L536.81 2.07201H548.394Z" stroke="white" stroke-width="2" mask="url(#path-1-outside-1_2_5)"/>
    <path d="M563.912 10.84V19.928H578.568V28.376H563.912V38.232H580.488V47H552.968V2.07201H580.488V10.84H563.912Z" stroke="white" stroke-width="2" mask="url(#path-1-outside-1_2_5)"/>
    <path d="M598.537 38.552H612.873V47H587.593V2.07201H598.537V38.552Z" stroke="white" stroke-width="2" mask="url(#path-1-outside-1_2_5)"/>
    <path d="M639.341 47.448C635.117 47.448 631.234 46.4667 627.693 44.504C624.194 42.5413 621.4 39.8107 619.309 36.312C617.261 32.7707 616.237 28.8027 616.237 24.408C616.237 20.0133 617.261 16.0667 619.309 12.568C621.4 9.06934 624.194 6.33867 627.693 4.37601C631.234 2.41334 635.117 1.43201 639.341 1.43201C643.565 1.43201 647.426 2.41334 650.925 4.37601C654.466 6.33867 657.24 9.06934 659.245 12.568C661.293 16.0667 662.317 20.0133 662.317 24.408C662.317 28.8027 661.293 32.7707 659.245 36.312C657.197 39.8107 654.424 42.5413 650.925 44.504C647.426 46.4667 643.565 47.448 639.341 47.448ZM639.341 37.464C642.925 37.464 645.784 36.2693 647.917 33.88C650.093 31.4907 651.181 28.3333 651.181 24.408C651.181 20.44 650.093 17.2827 647.917 14.936C645.784 12.5467 642.925 11.352 639.341 11.352C635.714 11.352 632.813 12.5253 630.637 14.872C628.504 17.2187 627.437 20.3973 627.437 24.408C627.437 28.376 628.504 31.5547 630.637 33.944C632.813 36.2907 635.714 37.464 639.341 37.464Z" stroke="white" stroke-width="2" mask="url(#path-1-outside-1_2_5)"/>
    <path d="M702.645 16.536C702.645 19.1387 702.048 21.528 700.854 23.704C699.659 25.8373 697.824 27.5653 695.349 28.888C692.875 30.2107 689.803 30.872 686.133 30.872H679.349V47H668.406V2.07201H686.133C689.717 2.07201 692.747 2.69067 695.221 3.92801C697.696 5.16534 699.552 6.872 700.789 9.048C702.027 11.224 702.645 13.72 702.645 16.536ZM685.301 22.168C687.392 22.168 688.949 21.6773 689.973 20.696C690.997 19.7147 691.51 18.328 691.51 16.536C691.51 14.744 690.997 13.3573 689.973 12.376C688.949 11.3947 687.392 10.904 685.301 10.904H679.349V22.168H685.301Z" stroke="white" stroke-width="2" mask="url(#path-1-outside-1_2_5)"/>
    <path d="M719.287 10.84V19.928H733.943V28.376H719.287V38.232H735.863V47H708.343V2.07201H735.863V10.84H719.287Z" stroke="white" stroke-width="2" mask="url(#path-1-outside-1_2_5)"/>
    <path d="M765.88 47L756.536 30.04H753.912V47H742.968V2.07201H761.336C764.877 2.07201 767.885 2.69067 770.36 3.92801C772.877 5.16534 774.755 6.872 775.992 9.048C777.229 11.1813 777.848 13.5707 777.848 16.216C777.848 19.2027 776.995 21.8693 775.288 24.216C773.624 26.5627 771.149 28.2267 767.864 29.208L778.232 47H765.88ZM753.912 22.296H760.696C762.701 22.296 764.195 21.8053 765.176 20.824C766.2 19.8427 766.712 18.456 766.712 16.664C766.712 14.9573 766.2 13.6133 765.176 12.632C764.195 11.6507 762.701 11.16 760.696 11.16H753.912V22.296Z" stroke="white" stroke-width="2" mask="url(#path-1-outside-1_2_5)"/>
</svg>
