<svg  viewBox="0 0 757 96" fill="none" xmlns="http://www.w3.org/2000/svg">
    <g filter="url(#filter0_b_3_5)">
        <path d="M32 25.328H33V24.328H32V25.328ZM32 32.56V33.56H33V32.56H32ZM13.376 32.56V31.56H12.376V32.56H13.376ZM13.376 44.016H12.376V45.016H13.376V44.016ZM27.648 44.016H28.648V43.016H27.648V44.016ZM27.648 51.12V52.12H28.648V51.12H27.648ZM13.376 51.12V50.12H12.376V51.12H13.376ZM13.376 70V71H14.376V70H13.376ZM4.416 70H3.416V71H4.416V70ZM4.416 25.328V24.328H3.416V25.328H4.416ZM31 25.328V32.56H33V25.328H31ZM32 31.56H13.376V33.56H32V31.56ZM12.376 32.56V44.016H14.376V32.56H12.376ZM13.376 45.016H27.648V43.016H13.376V45.016ZM26.648 44.016V51.12H28.648V44.016H26.648ZM27.648 50.12H13.376V52.12H27.648V50.12ZM12.376 51.12V70H14.376V51.12H12.376ZM13.376 69H4.416V71H13.376V69ZM5.416 70V25.328H3.416V70H5.416ZM4.416 26.328H32V24.328H4.416V26.328ZM47.1855 25.328H48.1855V24.328H47.1855V25.328ZM49.5535 59.952L48.837 60.6497L48.8464 60.6591L49.5535 59.952ZM62.9295 59.952L63.6367 60.6592L63.646 60.6496L62.9295 59.952ZM65.2975 25.328V24.328H64.2975V25.328H65.2975ZM74.3215 25.328H75.3215V24.328H74.3215V25.328ZM71.8255 62.576L70.979 62.0435L70.9767 62.0473L71.8255 62.576ZM65.2335 68.464L64.803 67.5614L64.7976 67.564L65.2335 68.464ZM46.9935 68.464L46.552 69.3613L46.5576 69.364L46.9935 68.464ZM40.5935 62.576L39.7348 63.0885L39.7385 63.0946L40.5935 62.576ZM38.2255 25.328V24.328H37.2255V25.328H38.2255ZM46.1855 25.328V52.976H48.1855V25.328H46.1855ZM46.1855 52.976C46.1855 56.1753 47.0218 58.7854 48.837 60.6496L50.27 59.2544C48.9278 57.876 48.1855 55.8354 48.1855 52.976H46.1855ZM48.8464 60.6591C50.6613 62.474 53.1635 63.32 56.2095 63.32V61.32C53.5381 61.32 51.603 60.5873 50.2606 59.2449L48.8464 60.6591ZM56.2095 63.32C59.2932 63.32 61.819 62.4767 63.6366 60.6591L62.2224 59.2449C60.8827 60.5846 58.9284 61.32 56.2095 61.32V63.32ZM63.646 60.6496C65.4612 58.7854 66.2975 56.1753 66.2975 52.976H64.2975C64.2975 55.8354 63.5552 57.876 62.213 59.2544L63.646 60.6496ZM66.2975 52.976V25.328H64.2975V52.976H66.2975ZM65.2975 26.328H74.3215V24.328H65.2975V26.328ZM73.3215 25.328V52.912H75.3215V25.328H73.3215ZM73.3215 52.912C73.3215 56.5617 72.523 59.589 70.979 62.0435L72.672 63.1085C74.456 60.2724 75.3215 56.857 75.3215 52.912H73.3215ZM70.9767 62.0473C69.4565 64.4876 67.4045 66.3207 64.803 67.5614L65.664 69.3666C68.6092 67.962 70.9518 65.8697 72.6743 63.1047L70.9767 62.0473ZM64.7976 67.564C62.2173 68.8139 59.3181 69.448 56.0815 69.448V71.448C59.5862 71.448 62.7884 70.7595 65.6694 69.364L64.7976 67.564ZM56.0815 69.448C52.8897 69.448 50.0115 68.8147 47.4294 67.564L46.5576 69.364C49.4369 70.7586 52.6173 71.448 56.0815 71.448V69.448ZM47.435 67.5667C44.921 66.3297 42.93 64.4998 41.4485 62.0574L39.7385 63.0946C41.4144 65.8576 43.69 67.953 46.552 69.3613L47.435 67.5667ZM41.4522 62.0635C39.9853 59.6055 39.2255 56.5707 39.2255 52.912H37.2255C37.2255 56.848 38.0444 60.2558 39.7348 63.0885L41.4522 62.0635ZM39.2255 52.912V25.328H37.2255V52.912H39.2255ZM38.2255 26.328H47.1855V24.328H38.2255V26.328ZM91.9385 62.896H90.9385V63.896H91.9385V62.896ZM106.659 62.896H107.659V61.896H106.659V62.896ZM106.659 70V71H107.659V70H106.659ZM82.9785 70H81.9785V71H82.9785V70ZM82.9785 25.328V24.328H81.9785V25.328H82.9785ZM91.9385 25.328H92.9385V24.328H91.9385V25.328ZM91.9385 63.896H106.659V61.896H91.9385V63.896ZM105.659 62.896V70H107.659V62.896H105.659ZM106.659 69H82.9785V71H106.659V69ZM83.9785 70V25.328H81.9785V70H83.9785ZM82.9785 26.328H91.9385V24.328H82.9785V26.328ZM90.9385 25.328V62.896H92.9385V25.328H90.9385ZM121.313 62.896H120.313V63.896H121.313V62.896ZM136.034 62.896H137.034V61.896H136.034V62.896ZM136.034 70V71H137.034V70H136.034ZM112.354 70H111.354V71H112.354V70ZM112.354 25.328V24.328H111.354V25.328H112.354ZM121.313 25.328H122.313V24.328H121.313V25.328ZM121.313 63.896H136.034V61.896H121.313V63.896ZM135.034 62.896V70H137.034V62.896H135.034ZM136.034 69H112.354V71H136.034V69ZM113.354 70V25.328H111.354V70H113.354ZM112.354 26.328H121.313V24.328H112.354V26.328ZM120.313 25.328V62.896H122.313V25.328H120.313ZM168.993 43.376H169.993V42.376H168.993V43.376ZM168.993 50.928V51.928H169.993V50.928H168.993ZM141.857 50.928H140.857V51.928H141.857V50.928ZM141.857 43.376V42.376H140.857V43.376H141.857ZM167.993 43.376V50.928H169.993V43.376H167.993ZM168.993 49.928H141.857V51.928H168.993V49.928ZM142.857 50.928V43.376H140.857V50.928H142.857ZM141.857 44.376H168.993V42.376H141.857V44.376ZM186.017 68.848L185.621 69.7663L185.627 69.7688L186.017 68.848ZM180.129 64.24L179.319 64.8261L180.129 64.24ZM177.889 57.136V56.136H176.873L176.889 57.1516L177.889 57.136ZM187.489 57.136L188.487 57.0664L188.422 56.136H187.489V57.136ZM189.409 61.488L188.73 62.2218L188.736 62.2279L188.743 62.2339L189.409 61.488ZM199.201 61.616L199.836 62.3887L199.844 62.3821L199.852 62.3753L199.201 61.616ZM199.777 54.384L199.052 55.0728L199.777 54.384ZM196.705 52.4L196.311 53.3191L196.331 53.3275L196.35 53.335L196.705 52.4ZM191.713 50.736L191.431 51.6954L191.443 51.699L191.713 50.736ZM184.609 48.24L184.179 49.1429L184.192 49.149L184.205 49.1547L184.609 48.24ZM179.937 44.464L179.137 45.064L179.145 45.0752L179.154 45.0862L179.937 44.464ZM180.001 30.768L180.83 31.3269L180.001 30.768ZM185.569 26.288L185.963 27.2071L185.97 27.2042L185.977 27.2011L185.569 26.288ZM204.961 28.08L204.341 28.8643L204.347 28.8694L204.354 28.8744L204.961 28.08ZM209.761 37.424V38.424H210.838L210.758 37.3497L209.761 37.424ZM199.905 37.424L198.907 37.4795L198.959 38.424H199.905V37.424ZM197.921 33.648L197.27 34.4073L197.285 34.4197L197.3 34.4315L197.921 33.648ZM188.897 33.456L188.254 32.6903L188.246 32.6968L188.238 32.7034L188.897 33.456ZM188.513 40.368L187.787 41.0557L187.806 41.0754L187.825 41.094L188.513 40.368ZM191.457 42.288L191.051 43.2018L191.071 43.2107L191.091 43.2188L191.457 42.288ZM196.449 43.952L196.162 44.9098L196.167 44.9114L196.449 43.952ZM208.289 50.352L207.499 50.9646V50.9646L208.289 50.352ZM208.417 63.728L207.561 63.2109L208.417 63.728ZM202.977 68.656L203.424 69.5504L203.431 69.5473L203.437 69.544L202.977 68.656ZM194.465 69.448C191.466 69.448 188.785 68.9348 186.407 67.9272L185.627 69.7688C188.284 70.8945 191.235 71.448 194.465 71.448V69.448ZM186.413 67.9297C184.089 66.9278 182.275 65.5003 180.939 63.6539L179.319 64.8261C180.884 66.9904 182.996 68.6348 185.621 69.7663L186.413 67.9297ZM180.939 63.6539C179.621 61.8319 178.929 59.6681 178.889 57.1204L176.889 57.1516C176.935 60.0652 177.735 62.6375 179.319 64.8261L180.939 63.6539ZM177.889 58.136H187.489V56.136H177.889V58.136ZM186.491 57.2056C186.634 59.2476 187.359 60.953 188.73 62.2218L190.088 60.7542C189.155 59.8897 188.6 58.6937 188.487 57.0664L186.491 57.2056ZM188.743 62.2339C190.167 63.5058 192.05 64.088 194.273 64.088V62.088C192.4 62.088 191.04 61.6035 190.075 60.7421L188.743 62.2339ZM194.273 64.088C196.514 64.088 198.408 63.5615 199.836 62.3887L198.566 60.8433C197.605 61.6331 196.214 62.088 194.273 62.088V64.088ZM199.852 62.3753C201.276 61.1547 201.993 59.5511 201.993 57.648H199.993C199.993 58.9876 199.516 60.0293 198.55 60.8567L199.852 62.3753ZM201.993 57.648C201.993 56.1034 201.512 54.7579 200.502 53.6952L199.052 55.0728C199.664 55.7167 199.993 56.5473 199.993 57.648H201.993ZM200.502 53.6952C199.576 52.7202 198.42 51.9809 197.06 51.465L196.35 53.335C197.465 53.7578 198.357 54.3411 199.052 55.0728L200.502 53.6952ZM197.099 51.4809C195.845 50.9437 194.133 50.3752 191.983 49.773L191.443 51.699C193.559 52.2914 195.175 52.8323 196.311 53.3191L197.099 51.4809ZM191.995 49.7766C189.117 48.9301 186.794 48.1121 185.013 47.3253L184.205 49.1547C186.094 49.9893 188.507 50.8353 191.431 51.6954L191.995 49.7766ZM185.039 47.3371C183.394 46.5538 181.955 45.3952 180.72 43.8418L179.154 45.0862C180.565 46.8608 182.24 48.2195 184.179 49.1429L185.039 47.3371ZM180.737 43.864C179.623 42.3785 179.017 40.3486 179.017 37.68H177.017C177.017 40.6434 177.691 43.1362 179.137 45.064L180.737 43.864ZM179.017 37.68C179.017 35.2095 179.632 33.1053 180.83 31.3269L179.172 30.2091C177.725 32.356 177.017 34.8599 177.017 37.68H179.017ZM180.83 31.3269C182.035 29.5392 183.732 28.1631 185.963 27.2071L185.175 25.3689C182.627 26.4609 180.612 28.0715 179.172 30.2091L180.83 31.3269ZM185.977 27.2011C188.217 26.2008 190.805 25.688 193.761 25.688V23.688C190.573 23.688 187.699 24.2418 185.161 25.3749L185.977 27.2011ZM193.761 25.688C198.204 25.688 201.701 26.7761 204.341 28.8643L205.581 27.2957C202.504 24.8612 198.534 23.688 193.761 23.688V25.688ZM204.354 28.8744C207.004 30.9009 208.484 33.74 208.764 37.4983L210.758 37.3497C210.441 33.0866 208.721 29.6964 205.568 27.2856L204.354 28.8744ZM209.761 36.424H199.905V38.424H209.761V36.424ZM200.903 37.3685C200.802 35.5386 199.997 34.0181 198.542 32.8645L197.3 34.4315C198.32 35.2406 198.838 36.2374 198.907 37.4795L200.903 37.3685ZM198.572 32.8887C197.151 31.6706 195.298 31.112 193.121 31.112V33.112C194.955 33.112 196.302 33.5774 197.27 34.4073L198.572 32.8887ZM193.121 31.112C191.198 31.112 189.543 31.6074 188.254 32.6903L189.54 34.2217C190.384 33.5126 191.545 33.112 193.121 33.112V31.112ZM188.238 32.7034C186.944 33.8358 186.361 35.444 186.361 37.36H188.361C188.361 35.8626 188.802 34.8682 189.556 34.2086L188.238 32.7034ZM186.361 37.36C186.361 38.7909 186.83 40.0456 187.787 41.0557L189.239 39.6803C188.66 39.0691 188.361 38.3184 188.361 37.36H186.361ZM187.825 41.094C188.728 41.9495 189.808 42.6495 191.051 43.2018L191.863 41.3742C190.802 40.9025 189.919 40.3225 189.201 39.642L187.825 41.094ZM191.091 43.2188C192.324 43.7029 194.018 44.2667 196.162 44.9098L196.736 42.9942C194.613 42.3573 192.98 41.8118 191.823 41.3572L191.091 43.2188ZM196.167 44.9114C199.041 45.7568 201.358 46.5939 203.131 47.4187L203.975 45.6053C202.079 44.7234 199.659 43.8539 196.731 42.9926L196.167 44.9114ZM203.131 47.4187C204.812 48.2003 206.267 49.3753 207.499 50.9646L209.079 49.7394C207.666 47.9154 205.964 46.5303 203.975 45.6053L203.131 47.4187ZM207.499 50.9646C208.651 52.4515 209.273 54.4567 209.273 57.072H211.273C211.273 54.1406 210.572 51.6658 209.079 49.7394L207.499 50.9646ZM209.273 57.072C209.273 59.2788 208.704 61.3187 207.561 63.2109L209.273 64.2451C210.604 62.0413 211.273 59.6439 211.273 57.072H209.273ZM207.561 63.2109C206.431 65.0821 204.764 66.6046 202.517 67.768L203.437 69.544C205.969 68.2327 207.929 66.4699 209.273 64.2451L207.561 63.2109ZM202.53 67.7616C200.308 68.8727 197.63 69.448 194.465 69.448V71.448C197.871 71.448 200.868 70.8287 203.424 69.5504L202.53 67.7616ZM248.441 25.328H249.441V24.328H248.441V25.328ZM248.441 32.56V33.56H249.441V32.56H248.441ZM236.537 32.56V31.56H235.537V32.56H236.537ZM236.537 70V71H237.537V70H236.537ZM227.577 70H226.577V71H227.577V70ZM227.577 32.56H228.577V31.56H227.577V32.56ZM215.673 32.56H214.673V33.56H215.673V32.56ZM215.673 25.328V24.328H214.673V25.328H215.673ZM247.441 25.328V32.56H249.441V25.328H247.441ZM248.441 31.56H236.537V33.56H248.441V31.56ZM235.537 32.56V70H237.537V32.56H235.537ZM236.537 69H227.577V71H236.537V69ZM228.577 70V32.56H226.577V70H228.577ZM227.577 31.56H215.673V33.56H227.577V31.56ZM216.673 32.56V25.328H214.673V32.56H216.673ZM215.673 26.328H248.441V24.328H215.673V26.328ZM282.371 61.488L283.316 61.1611L283.083 60.488H282.371V61.488ZM264.578 61.488V60.488H263.866L263.633 61.1611L264.578 61.488ZM261.634 70V71H262.347L262.58 70.3269L261.634 70ZM252.227 70L251.285 69.662L250.805 71H252.227V70ZM268.29 25.264V24.264H267.587L267.349 24.926L268.29 25.264ZM278.723 25.264L279.664 24.926L279.426 24.264H278.723V25.264ZM294.786 70V71H296.208L295.728 69.662L294.786 70ZM285.315 70L284.369 70.3269L284.602 71H285.315V70ZM279.939 54.32V55.32H281.343L280.884 53.9931L279.939 54.32ZM273.474 35.632L274.42 35.3051L273.474 32.5728L272.529 35.3051L273.474 35.632ZM267.01 54.32L266.065 53.9931L265.606 55.32H267.01V54.32ZM282.371 60.488H264.578V62.488H282.371V60.488ZM263.633 61.1611L260.689 69.6731L262.58 70.3269L265.524 61.8149L263.633 61.1611ZM261.634 69H252.227V71H261.634V69ZM253.168 70.338L269.232 25.602L267.349 24.926L251.285 69.662L253.168 70.338ZM268.29 26.264H278.723V24.264H268.29V26.264ZM277.781 25.602L293.845 70.338L295.728 69.662L279.664 24.926L277.781 25.602ZM294.786 69H285.315V71H294.786V69ZM286.26 69.6731L283.316 61.1611L281.425 61.8149L284.369 70.3269L286.26 69.6731ZM280.884 53.9931L274.42 35.3051L272.529 35.9589L278.993 54.6469L280.884 53.9931ZM272.529 35.3051L266.065 53.9931L267.956 54.6469L274.42 35.9589L272.529 35.3051ZM267.01 55.32H279.939V53.32H267.01V55.32ZM301.559 35.824L300.691 35.3267L300.689 35.3302L301.559 35.824ZM309.687 27.696L310.177 28.5676L310.181 28.5656L309.687 27.696ZM342.263 39.216V40.216H343.646L343.213 38.9025L342.263 39.216ZM331.959 39.216L331.057 39.6487L331.33 40.216H331.959V39.216ZM327.607 34.416L327.104 35.2805L327.113 35.2855L327.607 34.416ZM314.231 34.672L314.743 35.5311L314.748 35.5279L314.231 34.672ZM309.495 39.792L308.608 39.3312L308.604 39.338L308.601 39.3448L309.495 39.792ZM309.495 55.408L308.597 55.8484L308.602 55.8587L308.608 55.8688L309.495 55.408ZM314.231 60.592L313.706 61.443L313.716 61.4495L313.727 61.4558L314.231 60.592ZM327.607 60.784L328.11 61.6485L328.116 61.6449L327.607 60.784ZM331.959 55.92V54.92H331.33L331.057 55.4873L331.959 55.92ZM342.263 55.92L343.213 56.2309L343.642 54.92H342.263V55.92ZM334.391 66.608L334.952 67.4356L334.954 67.4342L334.391 66.608ZM309.687 67.504L309.189 68.3709L309.195 68.3746L309.201 68.3782L309.687 67.504ZM301.559 59.376L300.689 59.8698L300.694 59.8779L301.559 59.376ZM299.615 47.6C299.615 43.3597 300.56 39.6078 302.429 36.3178L300.689 35.3302C298.632 38.9522 297.615 43.051 297.615 47.6H299.615ZM302.427 36.3213C304.345 32.9743 306.926 30.3964 310.177 28.5676L309.197 26.8244C305.621 28.8356 302.784 31.6764 300.691 35.3267L302.427 36.3213ZM310.181 28.5656C313.475 26.6947 317.164 25.752 321.271 25.752V23.752C316.844 23.752 312.811 24.772 309.193 26.8264L310.181 28.5656ZM321.271 25.752C326.083 25.752 330.255 26.9826 333.828 29.4182L334.954 27.7658C331.017 25.0814 326.443 23.752 321.271 23.752V25.752ZM333.828 29.4182C337.392 31.8482 339.885 35.2048 341.313 39.5295L343.213 38.9025C341.654 34.1819 338.9 30.4558 334.954 27.7658L333.828 29.4182ZM342.263 38.216H331.959V40.216H342.263V38.216ZM332.861 38.7833C331.757 36.4847 330.173 34.7235 328.101 33.5465L327.113 35.2855C328.796 36.2418 330.113 37.6806 331.057 39.6487L332.861 38.7833ZM328.11 33.5515C326.101 32.3838 323.789 31.816 321.207 31.816V33.816C323.489 33.816 325.444 34.3149 327.104 35.2805L328.11 33.5515ZM321.207 31.816C318.439 31.816 315.931 32.4763 313.714 33.8161L314.748 35.5279C316.627 34.393 318.77 33.816 321.207 33.816V31.816ZM313.719 33.8129C311.543 35.1096 309.839 36.9596 308.608 39.3312L310.383 40.2528C311.455 38.1871 312.909 36.6237 314.743 35.5311L313.719 33.8129ZM308.601 39.3448C307.409 41.7278 306.831 44.4894 306.831 47.6H308.831C308.831 44.7373 309.362 42.2935 310.389 40.2392L308.601 39.3448ZM306.831 47.6C306.831 50.671 307.41 53.4287 308.597 55.8484L310.393 54.9676C309.361 52.8647 308.831 50.417 308.831 47.6H306.831ZM308.608 55.8688C309.838 58.2377 311.537 60.1049 313.706 61.443L314.756 59.741C312.914 58.6044 311.456 57.0156 310.383 54.9472L308.608 55.8688ZM313.727 61.4558C315.943 62.7482 318.445 63.384 321.207 63.384V61.384C318.764 61.384 316.615 60.8251 314.735 59.7282L313.727 61.4558ZM321.207 63.384C323.789 63.384 326.101 62.8162 328.11 61.6485L327.104 59.9195C325.444 60.8851 323.489 61.384 321.207 61.384V63.384ZM328.116 61.6449C330.178 60.4263 331.758 58.6486 332.861 56.3527L331.057 55.4873C330.112 57.458 328.791 58.9231 327.098 59.9231L328.116 61.6449ZM331.959 56.92H342.263V54.92H331.959V56.92ZM341.313 55.6091C339.884 59.9774 337.389 63.3535 333.828 65.7818L334.954 67.4342C338.902 64.7425 341.656 60.9932 343.213 56.2309L341.313 55.6091ZM333.83 65.7804C330.303 68.1719 326.131 69.384 321.271 69.384V71.384C326.48 71.384 331.055 70.0788 334.952 67.4356L333.83 65.7804ZM321.271 69.384C317.16 69.384 313.468 68.4608 310.173 66.6298L309.201 68.3782C312.818 70.3872 316.848 71.384 321.271 71.384V69.384ZM310.185 66.6371C306.927 64.7632 304.343 62.1808 302.424 58.8741L300.694 59.8779C302.786 63.4832 305.621 66.3195 309.189 68.3709L310.185 66.6371ZM302.429 58.8822C300.56 55.5922 299.615 51.8403 299.615 47.6H297.615C297.615 52.149 298.632 56.2478 300.689 59.8698L302.429 58.8822ZM375.132 70L374.357 70.6326L374.658 71H375.132V70ZM358.876 50.096L359.651 49.4634L357.876 47.2907V50.096H358.876ZM358.876 70V71H359.876V70H358.876ZM349.916 70H348.916V71H349.916V70ZM349.916 25.328V24.328H348.916V25.328H349.916ZM358.876 25.328H359.876V24.328H358.876V25.328ZM358.876 45.36H357.876V48.1793L359.652 45.9901L358.876 45.36ZM375.132 25.328V24.328H374.656L374.355 24.6979L375.132 25.328ZM385.948 25.328L386.717 25.9677L388.081 24.328H385.948V25.328ZM367.516 47.472L366.747 46.8323L366.212 47.4753L366.751 48.1156L367.516 47.472ZM386.46 70V71H388.607L387.225 69.3564L386.46 70ZM375.907 69.3674L359.651 49.4634L358.102 50.7286L374.357 70.6326L375.907 69.3674ZM357.876 50.096V70H359.876V50.096H357.876ZM358.876 69H349.916V71H358.876V69ZM350.916 70V25.328H348.916V70H350.916ZM349.916 26.328H358.876V24.328H349.916V26.328ZM357.876 25.328V45.36H359.876V25.328H357.876ZM359.652 45.9901L375.909 25.9581L374.355 24.6979L358.1 44.7299L359.652 45.9901ZM375.132 26.328H385.948V24.328H375.132V26.328ZM385.179 24.6883L366.747 46.8323L368.285 48.1117L386.717 25.9677L385.179 24.6883ZM366.751 48.1156L385.695 70.6436L387.225 69.3564L368.281 46.8284L366.751 48.1156ZM386.46 69H375.132V71H386.46V69ZM435.572 28.08L435.111 28.9679L435.116 28.9701L435.572 28.08ZM443.828 35.952L442.956 36.4423L442.96 36.4488L442.963 36.4552L443.828 35.952ZM443.828 59.504L442.963 59.0008L442.961 59.0043L443.828 59.504ZM435.572 67.248L435.116 66.3578L435.112 66.3601L435.572 67.248ZM407.604 70H406.604V71H407.604V70ZM407.604 25.328V24.328H406.604V25.328H407.604ZM433.78 58.544L433.072 57.8369L433.78 58.544ZM433.78 36.848L433.061 37.5434L433.067 37.5492L433.78 36.848ZM416.564 32.88V31.88H415.564V32.88H416.564ZM416.564 62.384H415.564V63.384H416.564V62.384ZM423.22 26.328C427.781 26.328 431.735 27.2189 435.112 28.9679L436.031 27.1921C432.325 25.2718 428.045 24.328 423.22 24.328V26.328ZM435.116 28.9701C438.53 30.7179 441.135 33.2052 442.956 36.4423L444.699 35.4617C442.68 31.8721 439.781 29.1114 436.027 27.1898L435.116 28.9701ZM442.963 36.4552C444.825 39.6516 445.772 43.3981 445.772 47.728H447.772C447.772 43.0979 446.756 38.9938 444.692 35.4488L442.963 36.4552ZM445.772 47.728C445.772 52.0579 444.825 55.8044 442.963 59.0008L444.692 60.0072C446.756 56.4622 447.772 52.3581 447.772 47.728H445.772ZM442.961 59.0043C441.142 62.1571 438.537 64.6066 435.116 66.3578L436.027 68.1381C439.774 66.2201 442.673 63.5069 444.694 60.0037L442.961 59.0043ZM435.112 66.3601C431.735 68.1091 427.781 69 423.22 69V71C428.045 71 432.325 70.0562 436.031 68.1359L435.112 66.3601ZM423.22 69H407.604V71H423.22V69ZM408.604 70V25.328H406.604V70H408.604ZM407.604 26.328H423.22V24.328H407.604V26.328ZM422.9 63.384C427.776 63.384 431.688 62.0496 434.487 59.2511L433.072 57.8369C430.751 60.1584 427.41 61.384 422.9 61.384V63.384ZM434.487 59.2511C437.283 56.4543 438.62 52.5649 438.62 47.728H436.62C436.62 52.1924 435.396 55.5137 433.072 57.8369L434.487 59.2511ZM438.62 47.728C438.62 42.8902 437.283 38.984 434.492 36.1468L433.067 37.5492C435.396 39.9173 436.62 43.2645 436.62 47.728H438.62ZM434.498 36.1526C431.701 33.2626 427.785 31.88 422.9 31.88V33.88C427.4 33.88 430.738 35.1428 433.061 37.5434L434.498 36.1526ZM422.9 31.88H416.564V33.88H422.9V31.88ZM415.564 32.88V62.384H417.564V32.88H415.564ZM416.564 63.384H422.9V61.384H416.564V63.384ZM462.439 32.56V31.56H461.439V32.56H462.439ZM462.439 43.76H461.439V44.76H462.439V43.76ZM477.479 43.76H478.479V42.76H477.479V43.76ZM477.479 50.864V51.864H478.479V50.864H477.479ZM462.439 50.864V49.864H461.439V50.864H462.439ZM462.439 62.704H461.439V63.704H462.439V62.704ZM479.398 62.704H480.398V61.704H479.398V62.704ZM479.398 70V71H480.398V70H479.398ZM453.479 70H452.479V71H453.479V70ZM453.479 25.264V24.264H452.479V25.264H453.479ZM479.398 25.264H480.398V24.264H479.398V25.264ZM479.398 32.56V33.56H480.398V32.56H479.398ZM461.439 32.56V43.76H463.439V32.56H461.439ZM462.439 44.76H477.479V42.76H462.439V44.76ZM476.479 43.76V50.864H478.479V43.76H476.479ZM477.479 49.864H462.439V51.864H477.479V49.864ZM461.439 50.864V62.704H463.439V50.864H461.439ZM462.439 63.704H479.398V61.704H462.439V63.704ZM478.398 62.704V70H480.398V62.704H478.398ZM479.398 69H453.479V71H479.398V69ZM454.479 70V25.264H452.479V70H454.479ZM453.479 26.264H479.398V24.264H453.479V26.264ZM478.398 25.264V32.56H480.398V25.264H478.398ZM479.398 31.56H462.439V33.56H479.398V31.56ZM527.669 25.328L528.608 25.6723L529.101 24.328H527.669V25.328ZM511.285 70V71H511.983L512.224 70.3443L511.285 70ZM500.405 70L499.466 70.3443L499.707 71H500.405V70ZM484.021 25.328V24.328H482.589L483.082 25.6723L484.021 25.328ZM493.621 25.328L494.566 25.0011L494.333 24.328H493.621V25.328ZM505.909 60.848L504.964 61.1749L505.911 63.9138L506.855 61.1734L505.909 60.848ZM518.133 25.328V24.328H517.42L517.187 25.0026L518.133 25.328ZM526.73 24.9837L510.346 69.6557L512.224 70.3443L528.608 25.6723L526.73 24.9837ZM511.285 69H500.405V71H511.285V69ZM501.344 69.6557L484.96 24.9837L483.082 25.6723L499.466 70.3443L501.344 69.6557ZM484.021 26.328H493.621V24.328H484.021V26.328ZM492.676 25.6549L504.964 61.1749L506.854 60.5211L494.566 25.0011L492.676 25.6549ZM506.855 61.1734L519.079 25.6534L517.187 25.0026L504.963 60.5226L506.855 61.1734ZM518.133 26.328H527.669V24.328H518.133V26.328ZM542.001 32.56V31.56H541.001V32.56H542.001ZM542.001 43.76H541.001V44.76H542.001V43.76ZM557.041 43.76H558.041V42.76H557.041V43.76ZM557.041 50.864V51.864H558.041V50.864H557.041ZM542.001 50.864V49.864H541.001V50.864H542.001ZM542.001 62.704H541.001V63.704H542.001V62.704ZM558.961 62.704H559.961V61.704H558.961V62.704ZM558.961 70V71H559.961V70H558.961ZM533.041 70H532.041V71H533.041V70ZM533.041 25.264V24.264H532.041V25.264H533.041ZM558.961 25.264H559.961V24.264H558.961V25.264ZM558.961 32.56V33.56H559.961V32.56H558.961ZM541.001 32.56V43.76H543.001V32.56H541.001ZM542.001 44.76H557.041V42.76H542.001V44.76ZM556.041 43.76V50.864H558.041V43.76H556.041ZM557.041 49.864H542.001V51.864H557.041V49.864ZM541.001 50.864V62.704H543.001V50.864H541.001ZM542.001 63.704H558.961V61.704H542.001V63.704ZM557.961 62.704V70H559.961V62.704H557.961ZM558.961 69H533.041V71H558.961V69ZM534.041 70V25.264H532.041V70H534.041ZM533.041 26.264H558.961V24.264H533.041V26.264ZM557.961 25.264V32.56H559.961V25.264H557.961ZM558.961 31.56H542.001V33.56H558.961V31.56ZM576.063 62.896H575.063V63.896H576.063V62.896ZM590.784 62.896H591.784V61.896H590.784V62.896ZM590.784 70V71H591.784V70H590.784ZM567.104 70H566.104V71H567.104V70ZM567.104 25.328V24.328H566.104V25.328H567.104ZM576.063 25.328H577.063V24.328H576.063V25.328ZM576.063 63.896H590.784V61.896H576.063V63.896ZM589.784 62.896V70H591.784V62.896H589.784ZM590.784 69H567.104V71H590.784V69ZM568.104 70V25.328H566.104V70H568.104ZM567.104 26.328H576.063V24.328H567.104V26.328ZM575.063 25.328V62.896H577.063V25.328H575.063ZM605.695 67.504L606.184 66.6319L605.695 67.504ZM597.375 59.376L596.511 59.8812L596.514 59.8858L597.375 59.376ZM597.375 35.824L598.235 36.3338L598.237 36.3292L597.375 35.824ZM605.695 27.632L605.205 26.7599L605.695 27.632ZM628.734 27.632L628.241 28.5016L628.245 28.5041L628.734 27.632ZM636.99 35.824L636.123 36.3213L636.127 36.3276L636.13 36.3338L636.99 35.824ZM636.99 59.376L636.128 58.8708L636.126 58.8741L636.99 59.376ZM628.734 67.504L628.245 66.6319L628.734 67.504ZM624.318 60.656L624.822 61.5198L624.829 61.5159L624.836 61.5119L624.318 60.656ZM629.119 55.408L630.01 55.8619L629.119 55.408ZM629.119 39.728L628.227 40.1819L628.231 40.1888L629.119 39.728ZM624.318 34.544L623.815 35.4078V35.4078L624.318 34.544ZM610.047 34.544L609.55 33.6757L609.543 33.6802L610.047 34.544ZM605.247 39.728L606.134 40.1888L606.138 40.1819L605.247 39.728ZM605.247 55.408L606.138 54.9541L605.247 55.408ZM610.047 60.656L609.529 61.5119L609.54 61.5182L609.55 61.5242L610.047 60.656ZM617.214 69.448C613.197 69.448 609.527 68.5071 606.184 66.6319L605.205 68.3761C608.86 70.4263 612.869 71.448 617.214 71.448V69.448ZM606.184 66.6319C602.839 64.7554 600.193 62.1711 598.235 58.8662L596.514 59.8858C598.652 63.4929 601.553 66.3273 605.205 68.3761L606.184 66.6319ZM598.237 58.8708C596.287 55.5382 595.302 51.7685 595.302 47.536H593.302C593.302 52.0928 594.366 56.2165 596.511 59.8812L598.237 58.8708ZM595.302 47.536C595.302 43.3479 596.286 39.6227 598.235 36.3338L596.514 35.3142C594.367 38.9373 593.302 43.0201 593.302 47.536H595.302ZM598.237 36.3292C600.197 32.9822 602.842 30.3789 606.184 28.5041L605.205 26.7599C601.55 28.8104 598.648 31.6685 596.511 35.3188L598.237 36.3292ZM606.184 28.5041C609.527 26.6289 613.197 25.688 617.214 25.688V23.688C612.869 23.688 608.86 24.7097 605.205 26.7599L606.184 28.5041ZM617.214 25.688C621.277 25.688 624.945 26.6298 628.241 28.5016L629.228 26.7624C625.612 24.7089 621.6 23.688 617.214 23.688V25.688ZM628.245 28.5041C631.585 30.3779 634.207 32.9786 636.123 36.3213L637.858 35.3267C635.763 31.6721 632.881 28.8115 629.224 26.7599L628.245 28.5041ZM636.13 36.3338C638.079 39.6227 639.062 43.3479 639.062 47.536H641.062C641.062 43.0201 639.998 38.9373 637.851 35.3142L636.13 36.3338ZM639.062 47.536C639.062 51.7685 638.078 55.5382 636.128 58.8708L637.854 59.8812C639.999 56.2165 641.062 52.0928 641.062 47.536H639.062ZM636.126 58.8741C634.21 62.1747 631.588 64.7564 628.245 66.6319L629.224 68.3761C632.878 66.3263 635.76 63.4893 637.855 59.8779L636.126 58.8741ZM628.245 66.6319C624.902 68.5071 621.232 69.448 617.214 69.448V71.448C621.56 71.448 625.569 70.4263 629.224 68.3761L628.245 66.6319ZM617.214 63.448C620.055 63.448 622.602 62.8151 624.822 61.5198L623.815 59.7922C621.939 60.8863 619.75 61.448 617.214 61.448V63.448ZM624.836 61.5119C627.053 60.1722 628.778 58.279 630.01 55.8619L628.227 54.9541C627.155 57.0597 625.68 58.6652 623.801 59.8001L624.836 61.5119ZM630.01 55.8619C631.245 53.4371 631.846 50.6526 631.846 47.536H629.846C629.846 50.3927 629.296 52.8562 628.227 54.9541L630.01 55.8619ZM631.846 47.536C631.846 44.42 631.245 41.6534 630.006 39.2672L628.231 40.1888C629.296 42.2399 629.846 44.6787 629.846 47.536H631.846ZM630.01 39.2741C628.777 36.8544 627.048 34.9784 624.822 33.6802L623.815 35.4078C625.685 36.4989 627.156 38.0789 628.227 40.1819L630.01 39.2741ZM624.822 33.6802C622.602 32.3849 620.055 31.752 617.214 31.752V33.752C619.75 33.752 621.939 34.3137 623.815 35.4078L624.822 33.6802ZM617.214 31.752C614.373 31.752 611.809 32.385 609.55 33.6758L610.543 35.4122C612.465 34.3136 614.68 33.752 617.214 33.752V31.752ZM609.543 33.6802C607.317 34.9784 605.588 36.8544 604.355 39.2741L606.138 40.1819C607.209 38.0789 608.68 36.4989 610.55 35.4078L609.543 33.6802ZM604.359 39.2672C603.12 41.6534 602.518 44.42 602.518 47.536H604.518C604.518 44.6787 605.069 42.2399 606.134 40.1888L604.359 39.2672ZM602.518 47.536C602.518 50.6526 603.12 53.4371 604.355 55.8619L606.138 54.9541C605.069 52.8562 604.518 50.3927 604.518 47.536H602.518ZM604.355 55.8619C605.587 58.279 607.312 60.1722 609.529 61.5119L610.564 59.8001C608.685 58.6652 607.21 57.0597 606.138 54.9541L604.355 55.8619ZM609.55 61.5242C611.809 62.815 614.373 63.448 617.214 63.448V61.448C614.68 61.448 612.465 60.8864 610.543 59.7878L609.55 61.5242ZM677.576 45.872L676.701 45.3894L676.697 45.3963L676.693 45.4033L677.576 45.872ZM672.265 50.928L671.799 50.0431L671.792 50.0465L672.265 50.928ZM655.688 52.848V51.848H654.688V52.848H655.688ZM655.688 70V71H656.688V70H655.688ZM646.729 70H645.729V71H646.729V70ZM646.729 25.328V24.328H645.729V25.328H646.729ZM672.008 27.12L671.568 28.0176L672.008 27.12ZM677.448 32.048L676.58 32.5441L676.584 32.5508L676.588 32.5573L677.448 32.048ZM668.297 43.952L668.977 44.6848L668.984 44.6784L668.991 44.6718L668.297 43.952ZM655.688 32.624V31.624H654.688V32.624H655.688ZM655.688 45.616H654.688V46.616H655.688V45.616ZM678.305 39.152C678.305 41.3727 677.771 43.4467 676.701 45.3894L678.452 46.3546C679.686 44.116 680.305 41.7099 680.305 39.152H678.305ZM676.693 45.4033C675.693 47.2891 674.082 48.8412 671.799 50.0431L672.73 51.8129C675.311 50.4548 677.242 48.6362 678.46 46.3407L676.693 45.4033ZM671.792 50.0465C669.59 51.2261 666.737 51.848 663.177 51.848V53.848C666.955 53.848 670.16 53.1899 672.737 51.8095L671.792 50.0465ZM663.177 51.848H655.688V53.848H663.177V51.848ZM654.688 52.848V70H656.688V52.848H654.688ZM655.688 69H646.729V71H655.688V69ZM647.729 70V25.328H645.729V70H647.729ZM646.729 26.328H663.177V24.328H646.729V26.328ZM663.177 26.328C666.52 26.328 669.305 26.9062 671.568 28.0176L672.449 26.2224C669.848 24.9444 666.745 24.328 663.177 24.328V26.328ZM671.568 28.0176C673.844 29.1356 675.497 30.6482 676.58 32.5441L678.317 31.5519C677.011 29.2665 675.037 27.4938 672.449 26.2224L671.568 28.0176ZM676.588 32.5573C677.726 34.4802 678.305 36.6694 678.305 39.152H680.305C680.305 36.3439 679.646 33.7971 678.309 31.5387L676.588 32.5573ZM662.792 46.616C665.392 46.616 667.521 46.0363 668.977 44.6848L667.616 43.2192C666.682 44.0864 665.142 44.616 662.792 44.616V46.616ZM668.991 44.6718C670.425 43.289 671.089 41.4037 671.089 39.152H669.089C669.089 40.9963 668.558 42.311 667.602 43.2322L668.991 44.6718ZM671.089 39.152C671.089 36.7913 670.424 34.8461 668.931 33.5108C667.46 32.1943 665.353 31.624 662.792 31.624V33.624C665.096 33.624 666.637 34.1417 667.598 35.0012C668.537 35.8419 669.089 37.1607 669.089 39.152H671.089ZM662.792 31.624H655.688V33.624H662.792V31.624ZM654.688 32.624V45.616H656.688V32.624H654.688ZM655.688 46.616H662.792V44.616H655.688V46.616ZM694.626 32.56V31.56H693.626V32.56H694.626ZM694.626 43.76H693.626V44.76H694.626V43.76ZM709.666 43.76H710.666V42.76H709.666V43.76ZM709.666 50.864V51.864H710.666V50.864H709.666ZM694.626 50.864V49.864H693.626V50.864H694.626ZM694.626 62.704H693.626V63.704H694.626V62.704ZM711.586 62.704H712.586V61.704H711.586V62.704ZM711.586 70V71H712.586V70H711.586ZM685.666 70H684.666V71H685.666V70ZM685.666 25.264V24.264H684.666V25.264H685.666ZM711.586 25.264H712.586V24.264H711.586V25.264ZM711.586 32.56V33.56H712.586V32.56H711.586ZM693.626 32.56V43.76H695.626V32.56H693.626ZM694.626 44.76H709.666V42.76H694.626V44.76ZM708.666 43.76V50.864H710.666V43.76H708.666ZM709.666 49.864H694.626V51.864H709.666V49.864ZM693.626 50.864V62.704H695.626V50.864H693.626ZM694.626 63.704H711.586V61.704H694.626V63.704ZM710.586 62.704V70H712.586V62.704H710.586ZM711.586 69H685.666V71H711.586V69ZM686.666 70V25.264H684.666V70H686.666ZM685.666 26.264H711.586V24.264H685.666V26.264ZM710.586 25.264V32.56H712.586V25.264H710.586ZM711.586 31.56H694.626V33.56H711.586V31.56ZM742.768 70L741.898 70.4927L742.186 71H742.768V70ZM732.912 52.592L733.783 52.0993L733.495 51.592H732.912V52.592ZM728.688 52.592V51.592H727.688V52.592H728.688ZM728.688 70V71H729.688V70H728.688ZM719.729 70H718.729V71H719.729V70ZM719.729 25.328V24.328H718.729V25.328H719.729ZM745.328 27.184L744.875 28.0754L744.888 28.0816L745.328 27.184ZM750.768 32.112L749.9 32.6081L749.906 32.6187L749.913 32.6291L750.768 32.112ZM750.065 47.024L750.873 47.6122L750.878 47.6052L750.065 47.024ZM742.448 51.888L742.192 50.9216L740.917 51.2604L741.587 52.3962L742.448 51.888ZM753.136 70V71H754.888L753.998 69.4918L753.136 70ZM728.688 45.872H727.688V46.872H728.688V45.872ZM741.617 44.144L742.311 44.8638L742.317 44.8575L742.324 44.8511L741.617 44.144ZM741.617 34.48L740.922 35.1998L740.929 35.2064L740.936 35.2128L741.617 34.48ZM728.688 32.752V31.752H727.688V32.752H728.688ZM743.639 69.5073L733.783 52.0993L732.042 53.0847L741.898 70.4927L743.639 69.5073ZM732.912 51.592H728.688V53.592H732.912V51.592ZM727.688 52.592V70H729.688V52.592H727.688ZM728.688 69H719.729V71H728.688V69ZM720.729 70V25.328H718.729V70H720.729ZM719.729 26.328H736.497V24.328H719.729V26.328ZM736.497 26.328C739.836 26.328 742.616 26.9259 744.875 28.0753L745.782 26.2927C743.177 24.9674 740.069 24.328 736.497 24.328V26.328ZM744.888 28.0816C747.164 29.1996 748.817 30.7122 749.9 32.6081L751.637 31.6159C750.331 29.3305 748.357 27.5578 745.769 26.2864L744.888 28.0816ZM749.913 32.6291C751.049 34.5101 751.625 36.633 751.625 39.024H753.625C753.625 36.295 752.963 33.8099 751.624 31.5949L749.913 32.6291ZM751.625 39.024C751.625 41.7602 750.836 44.2235 749.251 46.4428L750.878 47.6052C752.706 45.0458 753.625 42.1758 753.625 39.024H751.625ZM749.256 46.4358C747.71 48.5613 745.387 50.0722 742.192 50.9216L742.705 52.8544C746.251 51.9118 749.006 50.1801 750.873 47.6122L749.256 46.4358ZM741.587 52.3962L752.275 70.5082L753.998 69.4918L743.31 51.3798L741.587 52.3962ZM753.136 69H742.768V71H753.136V69ZM728.688 46.872H736.177V44.872H728.688V46.872ZM736.177 46.872C738.748 46.872 740.858 46.2642 742.311 44.8638L740.922 43.4242C739.985 44.3278 738.469 44.872 736.177 44.872V46.872ZM742.324 44.8511C743.748 43.4265 744.409 41.5051 744.409 39.216H742.409C742.409 41.1082 741.874 42.4722 740.909 43.4369L742.324 44.8511ZM744.409 39.216C744.409 36.966 743.745 35.0919 742.297 33.7472L740.936 35.2128C741.877 36.0867 742.409 37.37 742.409 39.216H744.409ZM742.311 33.7602C740.858 32.3598 738.748 31.752 736.177 31.752V33.752C738.469 33.752 739.985 34.2962 740.922 35.1998L742.311 33.7602ZM736.177 31.752H728.688V33.752H736.177V31.752ZM727.688 32.752V45.872H729.688V32.752H727.688Z" fill="#AE9A63"/>
    </g>
    <defs>
        <filter id="filter0_b_3_5" x="0.416" y="20.688" width="756.72" height="53.76" filterUnits="userSpaceOnUse" color-interpolation-filters="sRGB">
            <feFlood flood-opacity="0" result="BackgroundImageFix"/>
            <feGaussianBlur in="BackgroundImage" stdDeviation="2"/>
            <feComposite in2="SourceAlpha" operator="in" result="effect1_backgroundBlur_3_5"/>
            <feBlend mode="normal" in="SourceGraphic" in2="effect1_backgroundBlur_3_5" result="shape"/>
        </filter>
    </defs>
</svg>










