<svg width="702" height="47" viewBox="0 0 702 47" fill="none" xmlns="http://www.w3.org/2000/svg">
    <path d="M26.144 1.392H28.144V-0.608002H26.144V1.392ZM26.144 6.128V8.128H28.144V6.128H26.144ZM6.752 6.128V4.128H4.752V6.128H6.752ZM6.752 21.168H4.752V23.168H6.752V21.168ZM22.496 21.168H24.496V19.168H22.496V21.168ZM22.496 25.904V27.904H24.496V25.904H22.496ZM6.752 25.904V23.904H4.752V25.904H6.752ZM6.752 46V48H8.752V46H6.752ZM0.928 46H-1.072V48H0.928V46ZM0.928 1.392V-0.608002H-1.072V1.392H0.928ZM24.144 1.392V6.128H28.144V1.392H24.144ZM26.144 4.128H6.752V8.128H26.144V4.128ZM4.752 6.128V21.168H8.752V6.128H4.752ZM6.752 23.168H22.496V19.168H6.752V23.168ZM20.496 21.168V25.904H24.496V21.168H20.496ZM22.496 23.904H6.752V27.904H22.496V23.904ZM4.752 25.904V46H8.752V25.904H4.752ZM6.752 44H0.928V48H6.752V44ZM2.928 46V1.392H-1.072V46H2.928ZM0.928 3.392H26.144V-0.608002H0.928V3.392ZM38.874 1.392H40.874V-0.608002H38.874V1.392ZM41.754 38.448L40.3398 39.8622L40.3476 39.87L40.3554 39.8777L41.754 38.448ZM57.882 38.448L56.4834 37.0183L56.4756 37.026L56.4678 37.0338L57.882 38.448ZM60.826 1.392V-0.608002H58.826V1.392H60.826ZM66.65 1.392H68.65V-0.608002H66.65V1.392ZM64.41 38.96L66.1301 39.9804L66.1339 39.9741L66.1376 39.9677L64.41 38.96ZM58.33 44.592L57.4596 42.7913L57.4478 42.7971L58.33 44.592ZM41.242 44.592L40.3597 46.3869L40.3717 46.3927L41.242 44.592ZM35.226 38.96L33.486 39.946L33.4958 39.9633L33.5059 39.9804L35.226 38.96ZM33.05 1.392V-0.608002H31.05V1.392H33.05ZM36.874 1.392V29.616H40.874V1.392H36.874ZM36.874 29.616C36.874 33.8701 37.9015 37.4239 40.3398 39.8622L43.1682 37.0338C41.7665 35.6321 40.874 33.2979 40.874 29.616H36.874ZM40.3554 39.8777C42.7824 42.2519 46.0452 43.328 49.882 43.328V39.328C46.8068 39.328 44.651 38.4841 43.1526 37.0183L40.3554 39.8777ZM49.882 43.328C53.682 43.328 56.9104 42.248 59.2962 39.8622L56.4678 37.0338C55.0136 38.488 52.9087 39.328 49.882 39.328V43.328ZM59.2806 39.8777C61.7714 37.441 62.826 33.881 62.826 29.616H58.826C58.826 33.287 57.9179 35.615 56.4834 37.0183L59.2806 39.8777ZM62.826 29.616V1.392H58.826V29.616H62.826ZM60.826 3.392H66.65V-0.608002H60.826V3.392ZM64.65 1.392V29.552H68.65V1.392H64.65ZM64.65 29.552C64.65 32.9982 63.9576 35.7664 62.6824 37.9523L66.1376 39.9677C67.8491 37.0336 68.65 33.5298 68.65 29.552H64.65ZM62.6899 37.9396C61.3908 40.1295 59.655 41.7302 57.4597 42.7913L59.2003 46.3927C62.125 44.9791 64.4426 42.8251 66.1301 39.9804L62.6899 37.9396ZM57.4478 42.7971C55.2377 43.8834 52.7082 44.448 49.818 44.448V48.448C53.2425 48.448 56.3876 47.7753 59.2122 46.3869L57.4478 42.7971ZM49.818 44.448C46.9285 44.448 44.3722 43.8836 42.1123 42.7913L40.3717 46.3927C43.2318 47.7751 46.3929 48.448 49.818 48.448V44.448ZM42.1242 42.7971C39.9711 41.7388 38.2504 40.1382 36.9461 37.9396L33.5059 39.9804C35.1883 42.8165 37.4782 44.9705 40.3598 46.3869L42.1242 42.7971ZM36.966 37.974C35.7248 35.7836 35.05 33.0073 35.05 29.552H31.05C31.05 33.5207 31.8259 37.0164 33.486 39.946L36.966 37.974ZM35.05 29.552V1.392H31.05V29.552H35.05ZM33.05 3.392H38.874V-0.608002H33.05V3.392ZM82.1895 41.264H80.1895V43.264H82.1895V41.264ZM97.8055 41.264H99.8055V39.264H97.8055V41.264ZM97.8055 46V48H99.8055V46H97.8055ZM76.3655 46H74.3655V48H76.3655V46ZM76.3655 1.392V-0.608002H74.3655V1.392H76.3655ZM82.1895 1.392H84.1895V-0.608002H82.1895V1.392ZM82.1895 43.264H97.8055V39.264H82.1895V43.264ZM95.8055 41.264V46H99.8055V41.264H95.8055ZM97.8055 44H76.3655V48H97.8055V44ZM78.3655 46V1.392H74.3655V46H78.3655ZM76.3655 3.392H82.1895V-0.608002H76.3655V3.392ZM80.1895 1.392V41.264H84.1895V1.392H80.1895ZM109.814 41.264H107.814V43.264H109.814V41.264ZM125.43 41.264H127.43V39.264H125.43V41.264ZM125.43 46V48H127.43V46H125.43ZM103.991 46H101.991V48H103.991V46ZM103.991 1.392V-0.608002H101.991V1.392H103.991ZM109.814 1.392H111.814V-0.608002H109.814V1.392ZM109.814 43.264H125.43V39.264H109.814V43.264ZM123.431 41.264V46H127.43V41.264H123.431ZM125.43 44H103.991V48H125.43V44ZM105.991 46V1.392H101.991V46H105.991ZM103.991 3.392H109.814V-0.608002H103.991V3.392ZM107.814 1.392V41.264H111.814V1.392H107.814ZM154.886 44.912L154.046 46.7269L154.066 46.7362L154.086 46.7451L154.886 44.912ZM149.446 40.56L147.811 41.7119L147.817 41.7208L147.824 41.7296L149.446 40.56ZM147.398 34.096V32.096H145.363L145.398 34.1311L147.398 34.096ZM153.606 34.096L155.596 33.893L155.412 32.096H153.606V34.096ZM156.166 39.408L154.772 40.8426L154.793 40.8627L154.815 40.8823L156.166 39.408ZM169.35 39.472L170.658 40.9847L170.661 40.9821L169.35 39.472ZM170.374 29.936L168.873 31.2573L170.374 29.936ZM166.854 27.504L166.121 29.3648V29.3648L166.854 27.504ZM161.158 25.712L161.675 23.7801L161.663 23.7768L161.158 25.712ZM154.054 23.408L153.25 25.2393L153.258 25.2428L153.266 25.2463L154.054 23.408ZM149.51 19.824L147.905 21.0174L147.922 21.0406L147.94 21.0633L149.51 19.824ZM149.51 6.704L151.18 7.80463V7.80462L149.51 6.704ZM154.694 2.352L153.869 0.530088L153.862 0.53306L153.856 0.536079L154.694 2.352ZM172.678 3.952L171.438 5.52112L171.444 5.52593L171.45 5.5307L172.678 3.952ZM177.222 12.272V14.272H179.429L179.212 12.0754L177.222 12.272ZM170.822 12.272L168.837 12.5201L169.056 14.272H170.822V12.272ZM168.134 7.792L166.85 9.32504L166.862 9.33538L166.874 9.34551L168.134 7.792ZM155.91 7.728L157.165 9.2855L157.178 9.27508L157.19 9.26444L155.91 7.728ZM154.95 16.944L153.445 18.261L153.46 18.2784L153.476 18.2954L154.95 16.944ZM158.342 19.312L157.569 21.1564L157.604 21.1712L157.64 21.1847L158.342 19.312ZM164.038 21.104L163.497 23.0296L163.507 23.0322L164.038 21.104ZM171.142 23.536L170.318 25.3582L170.336 25.3664L170.354 25.3743L171.142 23.536ZM175.75 27.184L174.165 28.4034L174.172 28.4134L174.18 28.4233L175.75 27.184ZM175.942 39.984L177.657 41.013L175.942 39.984ZM170.822 44.656L169.888 42.8876L170.822 44.656ZM162.822 44.448C160.112 44.448 157.745 43.9775 155.686 43.0789L154.086 46.7451C156.72 47.8945 159.644 48.448 162.822 48.448V44.448ZM155.726 43.0971C153.695 42.1567 152.166 40.9135 151.068 39.3904L147.824 41.7296C149.371 43.8758 151.469 45.5339 154.046 46.7269L155.726 43.0971ZM151.081 39.4081C150.003 37.878 149.434 36.1175 149.398 34.0609L145.398 34.1311C145.448 36.9385 146.244 39.4874 147.811 41.7119L151.081 39.4081ZM147.398 36.096H153.606V32.096H147.398V36.096ZM151.616 34.299C151.877 36.8527 152.938 39.0609 154.772 40.8426L157.56 37.9734C156.407 36.8538 155.762 35.5206 155.596 33.893L151.616 34.299ZM154.815 40.8823C156.843 42.7414 159.617 43.52 162.822 43.52V39.52C160.224 39.52 158.561 38.8905 157.517 37.9337L154.815 40.8823ZM162.822 43.52C165.916 43.52 168.611 42.7552 170.658 40.9847L168.042 37.9593C166.931 38.9195 165.275 39.52 162.822 39.52V43.52ZM170.661 40.9821C172.727 39.1884 173.782 36.8425 173.782 34.096H169.782C169.782 35.7015 169.216 36.9396 168.039 37.9619L170.661 40.9821ZM173.782 34.096C173.782 32.0056 173.197 30.1169 171.875 28.6147L168.873 31.2573C169.428 31.8884 169.782 32.773 169.782 34.096H173.782ZM171.875 28.6147C170.714 27.2944 169.271 26.3064 167.587 25.6432L166.121 29.3648C167.253 29.8109 168.157 30.4443 168.873 31.2573L171.875 28.6147ZM167.587 25.6432C166.079 25.049 164.098 24.4291 161.675 23.7801L160.641 27.6439C162.996 28.2749 164.813 28.8497 166.121 29.3648L167.587 25.6432ZM161.663 23.7768C158.768 23.0217 156.506 22.283 154.842 21.5697L153.266 25.2463C155.186 26.069 157.66 26.8663 160.653 27.6472L161.663 23.7768ZM154.858 21.5767C153.433 20.9509 152.174 19.9704 151.08 18.5847L147.94 21.0633C149.406 22.9203 151.177 24.3291 153.25 25.2393L154.858 21.5767ZM151.115 18.6306C150.208 17.4114 149.654 15.6552 149.654 13.168H145.654C145.654 16.2275 146.337 18.9086 147.905 21.0174L151.115 18.6306ZM149.654 13.168C149.654 11.0939 150.176 9.32846 151.18 7.80463L147.84 5.60337C146.37 7.8342 145.654 10.3781 145.654 13.168H149.654ZM151.18 7.80462C152.194 6.26548 153.621 5.04975 155.532 4.16792L153.856 0.536079C151.329 1.70225 149.3 3.38784 147.84 5.60337L151.18 7.80462ZM155.519 4.17391C157.481 3.28545 159.774 2.816 162.438 2.816V-1.184C159.3 -1.184 156.43 -0.629452 153.869 0.530088L155.519 4.17391ZM162.438 2.816C166.28 2.816 169.224 3.77118 171.438 5.52112L173.918 2.38288C170.842 -0.0485134 166.959 -1.184 162.438 -1.184V2.816ZM171.45 5.5307C173.696 7.2772 174.943 9.5461 175.232 12.4686L179.212 12.0754C178.818 8.0859 177.036 4.80812 173.906 2.37329L171.45 5.5307ZM177.222 10.272H170.822V14.272H177.222V10.272ZM172.807 12.0239C172.518 9.7133 171.296 7.78058 169.394 6.23849L166.874 9.34551C168.13 10.3634 168.7 11.4174 168.837 12.5201L172.807 12.0239ZM169.418 6.25896C167.393 4.56202 164.807 3.808 161.862 3.808V7.808C164.122 7.808 165.718 8.37664 166.85 9.32504L169.418 6.25896ZM161.862 3.808C159.067 3.808 156.598 4.55103 154.63 6.19155L157.19 9.26444C158.294 8.34496 159.793 7.808 161.862 7.808V3.808ZM154.655 6.17049C152.575 7.84596 151.606 10.2093 151.606 12.976H155.606C155.606 11.2201 156.173 10.0847 157.165 9.2855L154.655 6.17049ZM151.606 12.976C151.606 14.9842 152.171 16.8051 153.445 18.261L156.455 15.627C155.937 15.0349 155.606 14.2105 155.606 12.976H151.606ZM153.476 18.2954C154.616 19.5395 155.988 20.4937 157.569 21.1564L159.115 17.4676C158.05 17.021 157.161 16.3965 156.424 15.5925L153.476 18.2954ZM157.64 21.1847C159.083 21.7258 161.044 22.3409 163.497 23.0296L164.579 19.1784C162.168 18.5018 160.332 17.9222 159.044 17.4393L157.64 21.1847ZM163.507 23.0322C166.399 23.8286 168.657 24.6071 170.318 25.3582L171.966 21.7138C170.043 20.8435 167.565 20.0008 164.569 19.1758L163.507 23.0322ZM170.354 25.3743C171.808 25.9973 173.077 26.989 174.165 28.4034L177.335 25.9646C175.863 24.051 174.06 22.6107 171.93 21.6977L170.354 25.3743ZM174.18 28.4233C175.096 29.5827 175.67 31.3118 175.67 33.84H179.67C179.67 30.7362 178.964 28.028 177.32 25.9447L174.18 28.4233ZM175.67 33.84C175.67 35.6426 175.198 37.3364 174.227 38.955L177.657 41.013C178.99 38.7916 179.67 36.3894 179.67 33.84H175.67ZM174.227 38.955C173.288 40.5194 171.873 41.8388 169.888 42.8876L171.756 46.4244C174.294 45.0839 176.292 43.2886 177.657 41.013L174.227 38.955ZM169.888 42.8876C167.967 43.9024 165.633 44.448 162.822 44.448V48.448C166.155 48.448 169.154 47.7989 171.756 46.4244L169.888 42.8876ZM213.697 1.392H215.697V-0.608002H213.697V1.392ZM213.697 6.128V8.128H215.697V6.128H213.697ZM201.536 6.128V4.128H199.536V6.128H201.536ZM201.536 46V48H203.536V46H201.536ZM195.712 46H193.712V48H195.712V46ZM195.712 6.128H197.712V4.128H195.712V6.128ZM183.488 6.128H181.488V8.128H183.488V6.128ZM183.488 1.392V-0.608002H181.488V1.392H183.488ZM211.697 1.392V6.128H215.697V1.392H211.697ZM213.697 4.128H201.536V8.128H213.697V4.128ZM199.536 6.128V46H203.536V6.128H199.536ZM201.536 44H195.712V48H201.536V44ZM197.712 46V6.128H193.712V46H197.712ZM195.712 4.128H183.488V8.128H195.712V4.128ZM185.488 6.128V1.392H181.488V6.128H185.488ZM183.488 3.392H213.697V-0.608002H183.488V3.392ZM247.234 36.08L249.115 35.4004L248.637 34.08H247.234V36.08ZM227.777 36.08V34.08H226.374L225.896 35.4004L227.777 36.08ZM224.193 46V48H225.597L226.074 46.6796L224.193 46ZM218.049 46L216.17 45.3165L215.194 48H218.049V46ZM234.178 1.648V-0.352001H232.777L232.298 0.964512L234.178 1.648ZM240.898 1.648L242.778 0.966909L242.3 -0.352001H240.898V1.648ZM256.961 46V48H259.813L258.842 45.3189L256.961 46ZM250.818 46L248.937 46.6796L249.414 48H250.818V46ZM245.57 31.344V33.344H248.41L247.452 30.67L245.57 31.344ZM237.505 8.816L239.389 8.14197L237.505 2.88153L235.622 8.14197L237.505 8.816ZM229.441 31.344L227.559 30.67L226.601 33.344H229.441V31.344ZM247.234 34.08H227.777V38.08H247.234V34.08ZM225.896 35.4004L222.312 45.3204L226.074 46.6796L229.658 36.7596L225.896 35.4004ZM224.193 44H218.049V48H224.193V44ZM219.929 46.6835L236.057 2.33149L232.298 0.964512L216.17 45.3165L219.929 46.6835ZM234.178 3.648H240.898V-0.352001H234.178V3.648ZM239.017 2.32909L255.081 46.6811L258.842 45.3189L242.778 0.966909L239.017 2.32909ZM256.961 44H250.818V48H256.961V44ZM252.698 45.3204L249.115 35.4004L245.353 36.7596L248.937 46.6796L252.698 45.3204ZM247.452 30.67L239.389 8.14197L235.622 9.49002L243.687 32.018L247.452 30.67ZM235.622 8.14197L227.559 30.67L231.324 32.018L239.389 9.49002L235.622 8.14197ZM229.441 33.344H245.57V29.344H229.441V33.344ZM264.759 11.952L266.498 12.9397L266.503 12.9305L264.759 11.952ZM272.759 3.76L271.762 2.02616L271.752 2.03165L272.759 3.76ZM296.823 4.336L297.909 2.65686L296.823 4.336ZM304.759 14.32V16.32H307.675L306.624 13.5996L304.759 14.32ZM297.783 14.32L295.966 15.1563L296.501 16.32H297.783V14.32ZM292.406 8.112L291.341 9.80447L291.348 9.80886L291.355 9.81319L292.406 8.112ZM275.703 8.112L276.714 9.83739L275.703 8.112ZM269.879 14.32L271.644 15.2597L271.65 15.248L269.879 14.32ZM269.879 33.008L268.107 33.936L268.113 33.9477L269.879 33.008ZM275.703 39.152L276.714 37.4266L275.703 39.152ZM292.406 39.216L293.449 40.9226L293.458 40.9172L292.406 39.216ZM297.783 33.008V31.008H296.501L295.966 32.1717L297.783 33.008ZM304.759 33.008L306.622 33.7347L307.685 31.008H304.759V33.008ZM296.823 42.928L297.895 44.6161L297.902 44.6117L297.909 44.6071L296.823 42.928ZM272.759 43.504L271.752 45.2324L271.765 45.2398L271.778 45.2472L272.759 43.504ZM264.759 35.376L266.498 34.3884L264.759 35.376ZM263.815 23.664C263.815 19.6245 264.722 16.0665 266.498 12.9397L263.019 10.9643C260.87 14.7495 259.815 18.9995 259.815 23.664H263.815ZM266.503 12.9305C268.296 9.73386 270.712 7.26611 273.765 5.48835L271.752 2.03165C268.064 4.17922 265.146 7.1728 263.014 10.9735L266.503 12.9305ZM273.755 5.49381C276.85 3.71459 280.279 2.816 284.086 2.816V-1.184C279.617 -1.184 275.494 -0.119926 271.762 2.02619L273.755 5.49381ZM284.086 2.816C288.615 2.816 292.473 3.90356 295.736 6.01514L297.909 2.65686C293.919 0.0751038 289.286 -1.184 284.086 -1.184V2.816ZM295.736 6.01514C298.983 8.11617 301.37 11.0959 302.893 15.0404L306.624 13.5996C304.819 8.9254 301.915 5.24916 297.909 2.65686L295.736 6.01514ZM304.759 12.32H297.783V16.32H304.759V12.32ZM299.599 13.4837C298.21 10.4656 296.164 8.08347 293.458 6.41081L291.355 9.81319C293.342 11.0419 294.88 12.7984 295.966 15.1563L299.599 13.4837ZM293.472 6.41953C290.793 4.73237 287.633 3.936 284.086 3.936V7.936C287.025 7.936 289.412 8.59029 291.341 9.80447L293.472 6.41953ZM284.086 3.936C280.648 3.936 277.499 4.74084 274.691 6.3866L276.714 9.83739C278.856 8.58183 281.296 7.936 284.086 7.936V3.936ZM274.691 6.3866C271.874 8.03779 269.678 10.3923 268.107 13.392L271.65 15.248C272.895 12.8717 274.581 11.0875 276.714 9.83739L274.691 6.3866ZM268.113 13.3803C266.524 16.3665 265.767 19.8162 265.767 23.664H269.767C269.767 20.3438 270.417 17.5641 271.644 15.2597L268.113 13.3803ZM265.767 23.664C265.767 27.4745 266.526 30.9173 268.107 33.936L271.65 32.08C270.415 29.7227 269.767 26.9362 269.767 23.664H265.767ZM268.113 33.9477C269.687 36.9043 271.883 39.231 274.691 40.8774L276.714 37.4266C274.573 36.1716 272.886 34.4023 271.644 32.0683L268.113 33.9477ZM274.691 40.8774C277.499 42.5232 280.648 43.328 284.086 43.328V39.328C281.296 39.328 278.856 38.6822 276.714 37.4266L274.691 40.8774ZM284.086 43.328C287.623 43.328 290.773 42.5579 293.449 40.9226L291.364 37.5094C289.432 38.6901 287.036 39.328 284.086 39.328V43.328ZM293.458 40.9172C296.164 39.2445 298.21 36.8624 299.599 33.8443L295.966 32.1717C294.88 34.5296 293.342 36.2861 291.355 37.5148L293.458 40.9172ZM297.783 35.008H304.759V31.008H297.783V35.008ZM302.895 32.2813C301.374 36.1818 298.988 39.1444 295.736 41.2489L297.909 44.6071C301.91 42.0182 304.815 38.3675 306.622 33.7347L302.895 32.2813ZM295.75 41.2399C292.485 43.3142 288.622 44.384 284.086 44.384V48.384C289.279 48.384 293.907 47.1498 297.895 44.6161L295.75 41.2399ZM284.086 44.384C280.271 44.384 276.836 43.5028 273.739 41.7608L271.778 45.2472C275.508 47.3452 279.625 48.384 284.086 48.384V44.384ZM273.765 41.7757C270.706 39.9943 268.289 37.5432 266.498 34.3884L263.019 36.3636C265.153 40.1208 268.07 43.0883 271.752 45.2324L273.765 41.7757ZM266.498 34.3884C264.722 31.2615 263.815 27.7035 263.815 23.664H259.815C259.815 28.3285 260.87 32.5785 263.019 36.3636L266.498 34.3884ZM337.62 46L336.135 47.34L336.731 48H337.62V46ZM319.252 25.648L320.737 24.308L317.252 20.4469V25.648H319.252ZM319.252 46V48H321.252V46H319.252ZM313.428 46H311.428V48H313.428V46ZM313.428 1.392V-0.608002H311.428V1.392H313.428ZM319.252 1.392H321.252V-0.608002H319.252V1.392ZM319.252 22.064H317.252V27.3123L320.745 23.395L319.252 22.064ZM337.684 1.392V-0.608002H336.788L336.191 0.0609779L337.684 1.392ZM345.044 1.392L346.527 2.73438L349.553 -0.608002H345.044V1.392ZM324.82 23.728L323.337 22.3856L322.114 23.7363L323.346 25.0794L324.82 23.728ZM345.236 46V48H349.782L346.71 44.6486L345.236 46ZM339.105 44.66L320.737 24.308L317.767 26.988L336.135 47.34L339.105 44.66ZM317.252 25.648V46H321.252V25.648H317.252ZM319.252 44H313.428V48H319.252V44ZM315.428 46V1.392H311.428V46H315.428ZM313.428 3.392H319.252V-0.608002H313.428V3.392ZM317.252 1.392V22.064H321.252V1.392H317.252ZM320.745 23.395L339.177 2.72302L336.191 0.0609779L317.759 20.733L320.745 23.395ZM337.684 3.392H345.044V-0.608002H337.684V3.392ZM343.561 0.0496159L323.337 22.3856L326.303 25.0704L346.527 2.73438L343.561 0.0496159ZM323.346 25.0794L343.762 47.3514L346.71 44.6486L326.294 22.3765L323.346 25.0794ZM345.236 44H337.62V48H345.236V44ZM395.299 4.144L394.379 5.91983L394.392 5.92643L394.405 5.93285L395.299 4.144ZM403.491 11.888L401.744 12.8612L401.748 12.8696L401.753 12.8779L403.491 11.888ZM403.491 35.696L401.753 34.7061L401.749 34.7134L403.491 35.696ZM395.299 43.376L396.185 45.1692L396.193 45.1649L395.299 43.376ZM368.803 46H366.803V48H368.803V46ZM368.803 1.392V-0.608002H366.803V1.392H368.803ZM395.875 36.656L397.289 38.0702L397.299 38.0603L395.875 36.656ZM395.811 10.8L394.377 12.1945L394.387 12.2044L395.811 10.8ZM374.627 6.128V4.128H372.627V6.128H374.627ZM374.627 41.2H372.627V43.2H374.627V41.2ZM382.691 3.392C387.304 3.392 391.178 4.26137 394.379 5.91983L396.219 2.36816C392.338 0.357292 387.806 -0.608002 382.691 -0.608002V3.392ZM394.405 5.93285C397.643 7.55229 400.07 9.85609 401.744 12.8612L405.238 10.9148C403.157 7.17857 400.123 4.31971 396.193 2.35514L394.405 5.93285ZM401.753 12.8779C403.473 15.8975 404.371 19.512 404.371 23.792H408.371C408.371 18.9413 407.349 14.6199 405.229 10.8981L401.753 12.8779ZM404.371 23.792C404.371 28.072 403.473 31.6865 401.753 34.7061L405.229 36.6859C407.349 32.9641 408.371 28.6427 408.371 23.792H404.371ZM401.749 34.7134C400.077 37.6767 397.65 39.9642 394.405 41.5871L396.193 45.1649C400.116 43.2038 403.15 40.3713 405.233 36.6786L401.749 34.7134ZM394.413 41.5828C391.204 43.1683 387.318 44 382.691 44V48C387.792 48 392.312 47.0824 396.185 45.1692L394.413 41.5828ZM382.691 44H368.803V48H382.691V44ZM370.803 46V1.392H366.803V46H370.803ZM368.803 3.392H382.691V-0.608002H368.803V3.392ZM382.691 43.2C388.793 43.2 393.77 41.5895 397.289 38.0702L394.461 35.2418C391.921 37.7812 388.109 39.2 382.691 39.2V43.2ZM397.299 38.0603C400.792 34.5184 402.419 29.6699 402.419 23.792H398.419C398.419 28.9221 397.017 32.6496 394.451 35.2517L397.299 38.0603ZM402.419 23.792C402.419 17.8674 400.768 12.9779 397.235 9.39557L394.387 12.2044C396.998 14.8514 398.419 18.6233 398.419 23.792H402.419ZM397.245 9.40556C393.731 5.79253 388.771 4.128 382.691 4.128V8.128C388.046 8.128 391.833 9.57814 394.377 12.1944L397.245 9.40556ZM382.691 4.128H374.627V8.128H382.691V4.128ZM372.627 6.128V41.2H376.627V6.128H372.627ZM374.627 43.2H382.691V39.2H374.627V43.2ZM419.877 6.128V4.128H417.877V6.128H419.877ZM419.877 21.04H417.877V23.04H419.877V21.04ZM436.133 21.04H438.133V19.04H436.133V21.04ZM436.133 25.84V27.84H438.133V25.84H436.133ZM419.877 25.84V23.84H417.877V25.84H419.877ZM419.877 41.2H417.877V43.2H419.877V41.2ZM438.053 41.2H440.053V39.2H438.053V41.2ZM438.053 46V48H440.053V46H438.053ZM414.053 46H412.053V48H414.053V46ZM414.053 1.328V-0.672001H412.053V1.328H414.053ZM438.053 1.328H440.053V-0.672001H438.053V1.328ZM438.053 6.128V8.128H440.053V6.128H438.053ZM417.877 6.128V21.04H421.877V6.128H417.877ZM419.877 23.04H436.133V19.04H419.877V23.04ZM434.133 21.04V25.84H438.133V21.04H434.133ZM436.133 23.84H419.877V27.84H436.133V23.84ZM417.877 25.84V41.2H421.877V25.84H417.877ZM419.877 43.2H438.053V39.2H419.877V43.2ZM436.053 41.2V46H440.053V41.2H436.053ZM438.053 44H414.053V48H438.053V44ZM416.053 46V1.328H412.053V46H416.053ZM414.053 3.328H438.053V-0.672001H414.053V3.328ZM436.053 1.328V6.128H440.053V1.328H436.053ZM438.053 4.128H419.877V8.128H438.053V4.128ZM483.729 1.392L485.601 2.09807L486.622 -0.608002H483.729V1.392ZM466.897 46V48H468.28L468.769 46.7061L466.897 46ZM460.177 46L458.306 46.7061L458.795 48H460.177V46ZM443.345 1.392V-0.608002H440.453L441.474 2.09807L443.345 1.392ZM449.553 1.392L451.433 0.707256L450.953 -0.608002H449.553V1.392ZM463.569 39.856L461.69 40.5407L463.569 45.6976L465.449 40.5407L463.569 39.856ZM477.586 1.392V-0.608002H476.186L475.706 0.707256L477.586 1.392ZM481.858 0.685928L465.026 45.2939L468.769 46.7061L485.601 2.09807L481.858 0.685928ZM466.897 44H460.177V48H466.897V44ZM462.049 45.2939L445.217 0.685928L441.474 2.09807L458.306 46.7061L462.049 45.2939ZM443.345 3.392H449.553V-0.608002H443.345V3.392ZM447.674 2.07674L461.69 40.5407L465.449 39.1713L451.433 0.707256L447.674 2.07674ZM465.449 40.5407L479.465 2.07674L475.706 0.707256L461.69 39.1713L465.449 40.5407ZM477.586 3.392H483.729V-0.608002H477.586V3.392ZM495.94 6.128V4.128H493.94V6.128H495.94ZM495.94 21.04H493.94V23.04H495.94V21.04ZM512.195 21.04H514.195V19.04H512.195V21.04ZM512.195 25.84V27.84H514.195V25.84H512.195ZM495.94 25.84V23.84H493.94V25.84H495.94ZM495.94 41.2H493.94V43.2H495.94V41.2ZM514.115 41.2H516.115V39.2H514.115V41.2ZM514.115 46V48H516.115V46H514.115ZM490.116 46H488.116V48H490.116V46ZM490.116 1.328V-0.672001H488.116V1.328H490.116ZM514.115 1.328H516.115V-0.672001H514.115V1.328ZM514.115 6.128V8.128H516.115V6.128H514.115ZM493.94 6.128V21.04H497.94V6.128H493.94ZM495.94 23.04H512.195V19.04H495.94V23.04ZM510.195 21.04V25.84H514.195V21.04H510.195ZM512.195 23.84H495.94V27.84H512.195V23.84ZM493.94 25.84V41.2H497.94V25.84H493.94ZM495.94 43.2H514.115V39.2H495.94V43.2ZM512.115 41.2V46H516.115V41.2H512.115ZM514.115 44H490.116V48H514.115V44ZM492.116 46V1.328H488.116V46H492.116ZM490.116 3.328H514.115V-0.672001H490.116V3.328ZM512.115 1.328V6.128H516.115V1.328H512.115ZM514.115 4.128H495.94V8.128H514.115V4.128ZM528.752 41.264H526.752V43.264H528.752V41.264ZM544.368 41.264H546.368V39.264H544.368V41.264ZM544.368 46V48H546.368V46H544.368ZM522.928 46H520.928V48H522.928V46ZM522.928 1.392V-0.608002H520.928V1.392H522.928ZM528.752 1.392H530.752V-0.608002H528.752V1.392ZM528.752 43.264H544.368V39.264H528.752V43.264ZM542.368 41.264V46H546.368V41.264H542.368ZM544.368 44H522.928V48H544.368V44ZM524.928 46V1.392H520.928V46H524.928ZM522.928 3.392H528.752V-0.608002H522.928V3.392ZM526.752 1.392V41.264H530.752V1.392H526.752ZM559.449 43.568L558.452 45.3018L558.46 45.3065L558.469 45.3111L559.449 43.568ZM551.321 35.44L549.577 36.4185L549.584 36.4312L549.591 36.4438L551.321 35.44ZM551.321 11.952L549.586 10.9574L549.582 10.9643L551.321 11.952ZM559.449 3.824L560.43 5.56715L560.438 5.56252L560.446 5.55781L559.449 3.824ZM582.169 3.824L581.172 5.55781L581.18 5.56252L581.188 5.56715L582.169 3.824ZM590.233 11.888L591.972 10.9003V10.9003L590.233 11.888ZM582.169 43.568L583.15 45.3111L583.158 45.3065L583.166 45.3018L582.169 43.568ZM579.161 39.216L578.162 37.4831L578.156 37.4868L578.15 37.4906L579.161 39.216ZM585.049 33.008L583.289 32.0581L583.283 32.069L583.277 32.08L585.049 33.008ZM585.049 14.32L583.277 15.248L583.286 15.2649L583.295 15.2817L585.049 14.32ZM579.225 8.112L578.214 9.83739L579.225 8.112ZM562.329 8.112L563.34 9.83739L562.329 8.112ZM556.441 14.32L554.681 13.3701L554.676 13.3803L556.441 14.32ZM556.441 33.008L554.669 33.936L554.675 33.947L554.681 33.9579L556.441 33.008ZM562.329 39.216L561.318 40.9414L561.324 40.9452L561.33 40.9489L562.329 39.216ZM570.777 44.448C566.962 44.448 563.526 43.5668 560.43 41.8249L558.469 45.3111C562.198 47.4092 566.315 48.448 570.777 48.448V44.448ZM560.446 41.8342C557.341 40.0491 554.883 37.5935 553.051 34.4362L549.591 36.4438C551.77 40.1985 554.73 43.1616 558.452 45.3018L560.446 41.8342ZM553.065 34.4615C551.284 31.2868 550.377 27.7032 550.377 23.664H546.377C546.377 28.3288 547.432 32.5959 549.577 36.4185L553.065 34.4615ZM550.377 23.664C550.377 19.6245 551.284 16.0665 553.06 12.9397L549.582 10.9643C547.432 14.7495 546.377 18.9995 546.377 23.664H550.377ZM553.056 12.9466C554.888 9.75117 557.34 7.30483 560.43 5.56715L558.469 2.08085C554.731 4.18317 551.765 7.15549 549.586 10.9574L553.056 12.9466ZM560.446 5.55781C563.54 3.77859 566.97 2.88 570.777 2.88V-1.12C566.307 -1.12 562.184 -0.0559273 558.452 2.09019L560.446 5.55781ZM570.777 2.88C574.631 2.88 578.081 3.78042 581.172 5.55781L583.166 2.09019C579.43 -0.0577583 575.286 -1.12 570.777 -1.12V2.88ZM581.188 5.56715C584.28 7.30617 586.708 9.7308 588.494 12.8756L591.972 10.9003C589.833 7.1332 586.885 4.18183 583.15 2.08085L581.188 5.56715ZM588.494 12.8756C590.268 15.9996 591.177 19.5781 591.177 23.664H595.177C595.177 18.9606 594.123 14.6884 591.972 10.9003L588.494 12.8756ZM591.177 23.664C591.177 27.7499 590.268 31.3284 588.494 34.4524L591.972 36.4277C594.123 32.6396 595.177 28.3674 595.177 23.664H591.177ZM588.494 34.4524C586.706 37.6009 584.273 40.0513 581.172 41.8342L583.166 45.3018C586.892 43.1594 589.835 40.1911 591.972 36.4277L588.494 34.4524ZM581.188 41.8249C578.095 43.5651 574.639 44.448 570.777 44.448V48.448C575.278 48.448 579.417 47.4109 583.15 45.3111L581.188 41.8249ZM570.777 43.392C574.216 43.392 577.365 42.5872 580.172 40.9414L578.15 37.4906C576.008 38.7462 573.568 39.392 570.777 39.392V43.392ZM580.16 40.9489C583.021 39.3 585.245 36.9445 586.821 33.936L583.277 32.08C582.037 34.4475 580.336 36.2306 578.162 37.4831L580.16 40.9489ZM586.809 33.9579C588.441 30.9346 589.225 27.4838 589.225 23.664H585.225C585.225 26.9269 584.559 29.7054 583.289 32.0581L586.809 33.9579ZM589.225 23.664C589.225 19.807 588.443 16.3492 586.803 13.3583L583.295 15.2817C584.557 17.5814 585.225 20.353 585.225 23.664H589.225ZM586.821 13.392C585.249 10.3923 583.053 8.03779 580.236 6.3866L578.214 9.83739C580.346 11.0875 582.033 12.8717 583.277 15.248L586.821 13.392ZM580.236 6.3866C577.425 4.73837 574.253 3.936 570.777 3.936V7.936C573.616 7.936 576.076 8.58429 578.214 9.83739L580.236 6.3866ZM570.777 3.936C567.301 3.936 564.129 4.73837 561.318 6.3866L563.34 9.83739C565.478 8.58429 567.938 7.936 570.777 7.936V3.936ZM561.318 6.3866C558.506 8.03451 556.294 10.3817 554.681 13.3701L558.201 15.2699C559.49 12.8823 561.202 11.0908 563.34 9.83739L561.318 6.3866ZM554.676 13.3803C553.086 16.3665 552.329 19.8162 552.329 23.664H556.329C556.329 20.3438 556.98 17.5641 558.206 15.2597L554.676 13.3803ZM552.329 23.664C552.329 27.4745 553.088 30.9173 554.669 33.936L558.213 32.08C556.978 29.7227 556.329 26.9362 556.329 23.664H552.329ZM554.681 33.9579C556.294 36.9463 558.506 39.2935 561.318 40.9414L563.34 37.4906C561.202 36.2372 559.49 34.4457 558.201 32.0581L554.681 33.9579ZM561.33 40.9489C564.173 42.5871 567.338 43.392 570.777 43.392V39.392C567.987 39.392 565.519 38.7462 563.328 37.4831L561.33 40.9489ZM626.849 23.728L628.239 25.1664L628.24 25.166L626.849 23.728ZM606.69 27.376V25.376H604.69V27.376H606.69ZM606.69 46V48H608.69V46H606.69ZM600.865 46H598.865V48H600.865V46ZM600.865 1.392V-0.608002H598.865V1.392H600.865ZM626.721 5.04L625.356 6.50131L625.362 6.50685L625.368 6.51233L626.721 5.04ZM622.433 20.464L623.785 21.9383L622.433 20.464ZM606.69 6.192V4.192H604.69V6.192H606.69ZM606.69 22.576H604.69V24.576H606.69V22.576ZM628.69 14.448C628.69 17.6437 627.611 20.2098 625.459 22.29L628.24 25.166C631.208 22.2969 632.69 18.6763 632.69 14.448H628.69ZM625.46 22.2896C623.463 24.2191 620.201 25.376 615.266 25.376V29.376C620.74 29.376 625.202 28.1009 628.239 25.1664L625.46 22.2896ZM615.266 25.376H606.69V29.376H615.266V25.376ZM604.69 27.376V46H608.69V27.376H604.69ZM606.69 44H600.865V48H606.69V44ZM602.865 46V1.392H598.865V46H602.865ZM600.865 3.392H615.266V-0.608002H600.865V3.392ZM615.266 3.392C620.003 3.392 623.253 4.53613 625.356 6.50131L628.087 3.57868C624.985 0.679871 620.597 -0.608002 615.266 -0.608002V3.392ZM625.368 6.51233C627.571 8.53737 628.69 11.1245 628.69 14.448H632.69C632.69 10.0915 631.163 6.40663 628.075 3.56766L625.368 6.51233ZM615.266 24.576C618.741 24.576 621.721 23.8298 623.785 21.9383L621.082 18.9897C620.073 19.9142 618.275 20.576 615.266 20.576V24.576ZM623.785 21.9383C625.833 20.061 626.737 17.4617 626.737 14.448H622.737C622.737 16.6397 622.106 18.051 621.082 18.9897L623.785 21.9383ZM626.737 14.448C626.737 11.3107 625.825 8.61475 623.684 6.74832C621.595 4.92768 618.669 4.192 615.266 4.192V8.192C618.177 8.192 619.987 8.83232 621.055 9.76367C622.071 10.6493 622.737 12.0812 622.737 14.448H626.737ZM615.266 4.192H606.69V8.192H615.266V4.192ZM604.69 6.192V22.576H608.69V6.192H604.69ZM606.69 24.576H615.266V20.576H606.69V24.576ZM643.752 6.128V4.128H641.752V6.128H643.752ZM643.752 21.04H641.752V23.04H643.752V21.04ZM660.008 21.04H662.008V19.04H660.008V21.04ZM660.008 25.84V27.84H662.008V25.84H660.008ZM643.752 25.84V23.84H641.752V25.84H643.752ZM643.752 41.2H641.752V43.2H643.752V41.2ZM661.928 41.2H663.928V39.2H661.928V41.2ZM661.928 46V48H663.928V46H661.928ZM637.928 46H635.928V48H637.928V46ZM637.928 1.328V-0.672001H635.928V1.328H637.928ZM661.928 1.328H663.928V-0.672001H661.928V1.328ZM661.928 6.128V8.128H663.928V6.128H661.928ZM641.752 6.128V21.04H645.752V6.128H641.752ZM643.752 23.04H660.008V19.04H643.752V23.04ZM658.008 21.04V25.84H662.008V21.04H658.008ZM660.008 23.84H643.752V27.84H660.008V23.84ZM641.752 25.84V41.2H645.752V25.84H641.752ZM643.752 43.2H661.928V39.2H643.752V43.2ZM659.928 41.2V46H663.928V41.2H659.928ZM661.928 44H637.928V48H661.928V44ZM639.928 46V1.328H635.928V46H639.928ZM637.928 3.328H661.928V-0.672001H637.928V3.328ZM659.928 1.328V6.128H663.928V1.328H659.928ZM661.928 4.128H643.752V8.128H661.928V4.128ZM694.229 46L692.5 47.0066L693.079 48H694.229V46ZM683.604 27.76L685.333 26.7534L684.754 25.76H683.604V27.76ZM676.565 27.76V25.76H674.565V27.76H676.565ZM676.565 46V48H678.565V46H676.565ZM670.74 46H668.74V48H670.74V46ZM670.74 1.392V-0.608002H668.74V1.392H670.74ZM693.653 3.12L692.758 4.90885L692.765 4.91212L692.771 4.91533L693.653 3.12ZM697.94 22.64L696.351 21.4262L696.344 21.4354L696.337 21.4447L697.94 22.64ZM690.005 27.312L689.581 25.3574L686.856 25.9484L688.289 28.3401L690.005 27.312ZM701.205 46V48H704.735L702.92 44.9719L701.205 46ZM676.565 23.088H674.565V25.088H676.565V23.088ZM692.245 20.784L693.639 22.2174L693.649 22.2079L693.659 22.1982L692.245 20.784ZM692.245 8.368L690.871 9.82203L690.881 9.83141L690.891 9.84066L692.245 8.368ZM676.565 6.192V4.192H674.565V6.192H676.565ZM695.957 44.9934L685.333 26.7534L681.876 28.7666L692.5 47.0066L695.957 44.9934ZM683.604 25.76H676.565V29.76H683.604V25.76ZM674.565 27.76V46H678.565V27.76H674.565ZM676.565 44H670.74V48H676.565V44ZM672.74 46V1.392H668.74V46H672.74ZM670.74 3.392H685.141V-0.608002H670.74V3.392ZM685.141 3.392C688.293 3.392 690.804 3.93177 692.758 4.90885L694.547 1.33114C691.893 0.0042305 688.729 -0.608002 685.141 -0.608002V3.392ZM692.771 4.91533C694.82 5.92102 696.25 7.2279 697.176 8.8044L700.625 6.7796C699.247 4.43077 697.179 2.62298 694.534 1.32466L692.771 4.91533ZM697.176 8.8044C698.129 10.4283 698.628 12.3118 698.628 14.512H702.628C702.628 11.6775 701.976 9.08105 700.625 6.7796L697.176 8.8044ZM698.628 14.512C698.628 17.1644 697.865 19.443 696.351 21.4262L699.53 23.8538C701.6 21.1437 702.628 18.0036 702.628 14.512H698.628ZM696.337 21.4447C694.94 23.3181 692.767 24.6665 689.581 25.3574L690.428 29.2666C694.325 28.4215 697.442 26.6552 699.544 23.8353L696.337 21.4447ZM688.289 28.3401L699.489 47.0281L702.92 44.9719L691.72 26.2839L688.289 28.3401ZM701.205 44H694.229V48H701.205V44ZM676.565 25.088H685.141V21.088H676.565V25.088ZM685.141 25.088C688.593 25.088 691.552 24.2487 693.639 22.2174L690.85 19.3505C689.78 20.3913 688.003 21.088 685.141 21.088V25.088ZM693.659 22.1982C695.675 20.1823 696.612 17.5501 696.612 14.512H692.612C692.612 16.6792 691.972 18.2284 690.83 19.3698L693.659 22.1982ZM696.612 14.512C696.612 11.4477 695.682 8.81053 693.598 6.89534L690.891 9.84066C691.964 10.8268 692.612 12.2857 692.612 14.512H696.612ZM693.618 6.91397C691.559 4.9692 688.595 4.192 685.141 4.192V8.192C688.086 8.192 689.858 8.86546 690.871 9.82203L693.618 6.91397ZM685.141 4.192H676.565V8.192H685.141V4.192ZM674.565 6.192V23.088H678.565V6.192H674.565Z" fill="#AE9A63"/>
</svg>



